<?xml version="1.0" encoding="utf-8"?>
<!-- Generator: Adobe Illustrator 19.0.0, SVG Export Plug-In . SVG Version: 6.00 Build 0)  -->
<svg version="1.1" id="layer" xmlns="http://www.w3.org/2000/svg" xmlns:xlink="http://www.w3.org/1999/xlink" x="0px" y="0px"
	 viewBox="-153 -46 652 652" style="enable-background:new -153 -46 652 652;" xml:space="preserve">
<style type="text/css">
	.st0{fill:#FFFFFF;}
	.st1{fill:#C9232C;}
	.st2{fill:#DBAF27;}
</style>
<path d="M66.8,223.8l2.7,14l-3.7,0.8c-2.2-9.3-10.1-15.3-20.1-15.3c-12.2,0-21.3,10.8-21.3,25.3c0,14.9,9.5,25.8,22.4,25.8
	c10.3,0,17.4-5.9,20.2-16.5l3.7,0.5l-1.5,13.5c-9.5,4.9-16.3,6.9-24.3,6.9c-19.1,0-32.1-12.4-32.1-30.6c0-17.6,12.6-29.3,31.4-29.3
	c7.5,0,12,1,20.9,4.5C65.5,223.3,66.1,223.5,66.8,223.8z M139.9,228.7c1.7,3.7,2.4,5,4.5,9.4c1.9,3.8,3.1,6.3,3.6,7.4l3,6.2l2.9,5.9
	l1,2.1c1.7-3.3,2.3-4.5,4-8.3l3.2-7.1l3.4-7.4l2.8-6.3l0.8-1.8h16.9v2.3c-1.2-0.2-1.6-0.3-2.3-0.3c-4.6,0-5.5,1.6-5.5,10.5v17.6
	c0,8.5,1,10.5,5.3,10.5c0.7,0,1.6-0.1,2.7-0.3v2.3h-24.2V269c0.7,0.2,1.4,0.3,1.9,0.3c4,0,5.1-2.2,5.1-10.5v-21.7
	c-0.6,1.1-1,1.9-1.2,2.4c-0.2,0.4-1.2,2.6-3,6.5l-3.4,7.3l-3.7,8.3c-1.9,4.3-3,6.7-3.2,7.3c-0.2,0.4-0.4,1.1-0.8,1.9h-2.8l-1-2.1
	c-3.5-7.7-4.1-9-6.6-14.2l-3.4-7c-1.8-3.7-2.9-6-3.4-7c-0.4-0.7-0.9-1.7-1.6-3.1v21.3v2.1c0,6.3,1.5,8.4,5.9,8.4
	c0.7,0,1.1-0.1,1.8-0.3v2.3h-18.6V269c0.7,0.2,1.5,0.3,2,0.3c4.2,0,5.2-2,5.2-10.5v-17.6v-2.1c0-6.8-1-8.4-5.1-8.4
	c-0.8,0-1.3,0.1-1.9,0.3v-2.3H139.9z M318.2,269v2.3h-28V269c1.3,0.2,2.3,0.3,3.3,0.3c5.1,0,6.1-1.7,6.1-10.5v-17.6
	c0-8.9-1-10.5-6.2-10.5c-1.2,0-1.6,0-2.7,0.3v-2.3H318v2.3c-1.3-0.2-1.9-0.3-3.2-0.3c-5.3,0-6.3,1.6-6.3,10.5v17.6
	c0,8.7,1,10.5,6.2,10.5C315.8,269.3,317,269.2,318.2,269z M421.1,229.8l2.1,10.9l-3.2,0.6c-2.7-7.6-7-11.1-14-11.1
	c-10,0-16.6,7.4-16.6,18.6c0,11.9,7.4,20.4,17.7,20.4c2.6,0,4.5-0.3,6.9-1.3v-10.5v-1.3c0-3.3-1.1-4.5-4.1-4.5c-0.3,0-0.9,0-1.5,0.1
	l-0.5,0v-2.5h21.3v2.5l-0.7,0l-0.9-0.1l-0.3,0c-3.8,0-4.6,1.1-4.6,6.4c0,3.1,0.1,7.5,0.3,11.2c-2.5,0.5-5.2,1-7.4,1.5
	c-6.3,1.4-9,1.8-12.7,1.8c-13.5,0-22.7-8.9-22.7-22c0-13.8,9.4-22.5,24.3-22.5c2.5,0,5.4,0.2,8.2,0.7l3.7,0.6l3.3,0.4L421.1,229.8z
	 M469.7,228.7l1.6,9.2l-2.5,0.5c-1.1-5.5-3.7-7-12.2-7c-2.5,0-4.2,0.2-6.9,0.7v14.9h7.5c4.2,0,5.4-0.9,5.4-4.2c0-0.5,0-0.8-0.1-1.6
	h2.5v14.5h-2.5c0.1-1.3,0.1-1.5,0.1-2c0-2.8-1.4-3.8-5.4-3.8h-7.5v17.6h7.9h1.3c7.1,0,9.4-1.4,12-7.6c0.1-0.2,0.3-0.6,0.5-1.1l2.7,1
	l-4,11.5h-38.6V269c1.2,0.2,2.3,0.3,3.4,0.3c5,0,6-1.9,6-10.5v-17.6c0-8.8-1-10.5-6.2-10.5c-1.1,0-1.7,0.1-2.6,0.3v-2.3H469.7z
	 M16.2,294.1v-1.5h15.2v1.5L31,294l-0.6-0.1l-0.6-0.1h-0.2c-2,0-3.1,1.4-3.2,3.9l0,1.6l0,1.3v8.6c0,6.3,2.5,9.2,8,9.2
	c4.7,0,7.9-3.1,7.9-7.6v-1.5v-8.6v-1.4c0-4.1-0.9-5.5-3.4-5.5l-0.2,0l-0.6,0.1l-0.8,0.1l-0.3,0.1v-1.5H50v1.5l-0.3-0.1l-0.7-0.1
	l-0.7-0.1l-0.3,0c-2.7,0-3.5,1.3-3.5,5.5v1.4v8.6c0,8.1-3.7,11.7-11.9,11.7c-7.4,0-11.9-3.7-11.9-9.7v-2v-8.5l0-1.3l-0.1-1.6
	c-0.1-2.6-1.1-3.9-3.1-3.9C17.3,293.9,16.7,293.9,16.2,294.1z M62.7,292.6l0.8,0.9l2.7,3.5l3.2,4l3.1,3.8c1.1,1.4,2,2.5,2.8,3.4
	c1.4,1.7,2.3,2.7,2.5,3c0.2,0.2,0.4,0.6,0.8,1.1v-11.7v-1.4c0-4-1-5.5-3.5-5.5c-0.1,0-0.3,0-0.7,0.1l-0.6,0.1l-0.3,0.1v-1.5h12.3
	v1.5c-0.4-0.1-1.1-0.2-1.6-0.2c-2.6,0-3.6,1.5-3.6,5.5v1.4v19.1c-0.5,0.3-0.6,0.3-1.3,0.7c-0.6,0.3-0.8,0.4-1.3,0.8
	c-0.3-0.4-0.6-0.7-0.8-0.9c-0.4-0.5-1.4-1.8-3.2-4.1c-1-1.3-2-2.5-2.9-3.6c-1.1-1.4-1.8-2.3-2.2-2.7c-0.4-0.6-0.7-0.9-0.8-1
	L60,298.3v13.9l0,1.4l0,1.7c0.1,2.5,1.2,3.8,3.4,3.8c0.6,0,1-0.1,1.4-0.2v1.5H52.4v-1.5c0.5,0.1,1.1,0.2,1.8,0.2
	c2.6,0,3.4-1.3,3.4-5.5v-1.4v-11.4v-1.4c0-4.1-0.9-5.5-3.6-5.5h-0.1l-0.8,0.1l-0.7,0.1l-0.3,0.1v-1.5L62.7,292.6L62.7,292.6z
	 M106.9,318.8v1.5H88.7v-1.5c0.6,0.1,1.4,0.2,2.3,0.2c2.5,0,3.8-1.3,3.8-3.8l0-1.7l0-1.4v-11.4l0-1.4l0-1.7
	c-0.1-2.5-1.3-3.8-3.8-3.8c-0.1,0-0.4,0-0.9,0.1l-0.6,0.1l-0.3,0.1v-1.5h17.6v1.5l-0.4-0.1l-0.8-0.1c-0.8-0.1-0.9-0.1-1.1-0.1
	c-2.9,0-3.8,1.3-3.8,5.5v1.4v11.4v1.4c0,4.2,0.9,5.5,3.9,5.5C105.5,318.9,106.2,318.9,106.9,318.8z M139.5,292.6v1.5l-0.5-0.1
	c-0.4-0.1-0.6-0.1-0.8-0.1c-1.8,0-3,0.8-3.8,2.7l-0.8,2l-1.1,2.6l-0.9,2.3l-0.4,1.1l-6.2,16.5h-1.8c-0.6-1.6-0.8-2-1.7-4.4
	c-1.1-3-1.6-4.1-3-7.6l-1.9-4.8c-0.7-1.7-1.3-3.1-1.8-4.3c-0.8-1.8-1.2-2.8-1.3-3c-0.9-2.3-1.9-3.1-3.8-3.1c-0.8,0-1.4,0.1-1.9,0.2
	v-1.5h15.3v1.5l-0.5-0.1l-0.6-0.1l-0.4-0.1l-0.2,0c-1.3,0-2.1,0.6-2.1,1.5c0,0.4,0.1,0.5,0.3,1.2c0,0.1,0.1,0.4,0.3,0.8
	c0.1,0.2,0.2,0.4,0.2,0.6l5.4,14.3l5.7-15.3l0.2-0.5l0.2-0.5l0.1-0.4l0-0.4c0-1.1-0.7-1.5-2.3-1.5c-0.3,0-0.5,0-0.7,0.1l-0.4,0.1
	l-0.3,0v-1.5L139.5,292.6L139.5,292.6z M165.3,292.6l1.1,6l-1.6,0.3c-0.6-3.5-2.5-4.6-8.1-4.6c-1.2,0-1.9,0.1-3.5,0.3l-0.8,0.1v9.7
	h4.8h0.7c2,0,2.8-0.8,2.8-2.6c0-0.3,0-0.6-0.1-1.1h1.7v9.4h-1.7c0.1-0.9,0.1-1,0.1-1.3c0-1.6-1-2.5-2.7-2.5h-0.8h-4.8v11.4h5.1h0.8
	c4.8,0,6.4-1.1,8.1-5.6l1.8,0.6l-2.6,7.5h-25.1v-1.5c0.6,0.1,1.4,0.2,2.3,0.2c2.9,0,3.8-1.3,3.8-5.5v-1.4v-11.4v-1.4
	c0-4.1-1-5.5-3.8-5.5c-0.2,0-0.5,0-1,0.1l-0.6,0.1l-0.3,0.1v-1.5L165.3,292.6z M226.3,293.2v7.1h-1.6c-0.6-4.4-2.6-6.4-6.5-6.4
	c-2.9,0-5.1,1.7-5.1,4c0,1.8,1.1,3,4.1,4.4l3,1.4c5.5,2.6,7.4,4.8,7.4,8.5c0,5.1-4.7,8.6-11.5,8.6c-1.8,0-3.2-0.2-6.3-0.9
	c-0.9-0.2-1.1-0.2-1.8-0.3l0.2-8.1h1.7c0.2,4.4,2.9,7.3,6.8,7.3c3,0,5.3-2.1,5.3-4.8c0-2.5-1-3.4-6.7-6.3c-5.7-2.9-7.2-4.6-7.2-7.9
	c0-4.6,4.1-7.6,10.1-7.6c1.6,0,3.6,0.3,5.6,0.8c1.2,0.3,1.4,0.3,2.1,0.3L226.3,293.2z M251.6,318.8v1.5h-18.2v-1.5
	c0.6,0.1,1.4,0.2,2.3,0.2c2.9,0,3.8-1.3,3.8-5.5v-1.4v-11.4v-1.4c0-4.2-0.9-5.5-3.8-5.5c-0.1,0-0.4,0-0.9,0.1l-0.6,0.1l-0.3,0.1
	v-1.5h17.7v1.5L251,294l-0.8-0.1c-0.9-0.1-0.9-0.1-1.1-0.1c-2.4,0-3.7,1.3-3.8,3.8l0,1.7l0,1.4v11.4l0,1.4l0,1.7
	c0.1,2.5,1.3,3.8,3.8,3.8C250.1,318.9,250.9,318.9,251.6,318.8z M278.3,292.6l0.7,7.5h-1.7l-0.1-0.8c-0.5-3.7-1.1-4.6-3.5-4.7
	l-0.7,0h-3.7v17.5v1.3c0,4.1,0.9,5.5,3.4,5.5c0.6,0,1.1-0.1,1.6-0.2v1.5h-15.7v-1.5c0.5,0.1,1.1,0.2,1.6,0.2c2.1,0,3.2-1.4,3.3-3.9
	l0-1.6l0-1.3v-17.5h-4.1c-2.6,0-3.4,1.2-3.7,5.5h-1.8l0.7-7.5L278.3,292.6L278.3,292.6z M313,292.6v1.5c-0.6-0.2-0.9-0.2-1.5-0.2
	c-1.4,0-2.6,0.6-3.4,1.6l-0.8,1.2l-0.8,1.2l-0.5,0.8l-6,9.1v4.4l0,1.3l0,1.6c0.1,2.5,1.2,3.9,3.3,3.9c0.6,0,1.1-0.1,1.7-0.2v1.5
	h-15.8v-1.5c0.5,0.1,1.1,0.2,1.7,0.2c2.1,0,3.3-1.4,3.3-3.9l0-1.6l0-1.3V308l-4.7-6.8l-0.7-1.1l-1.4-2l-1.3-1.8
	c-1.3-1.9-2.3-2.4-4.2-2.4c-0.4,0-0.6,0-1.4,0.1l-0.5,0.1v-1.5h15.2v1.5l-0.4-0.1l-0.5-0.1c-0.3-0.1-0.5-0.1-0.6-0.1
	c-0.9,0-1.6,0.6-1.6,1.3c0,0.4,0.1,0.6,0.5,1.2l6.1,9.1l4.9-7.7l0.3-0.6l0.5-0.7c0.4-0.5,0.5-1,0.5-1.4c0-0.7-0.8-1.3-1.8-1.3
	c-0.1,0-0.3,0-0.6,0.1L302,294l-0.3,0.1v-1.5L313,292.6L313,292.6z M415,292.6l1,6l-1.7,0.3c-0.5-3.4-2.4-4.6-8.1-4.6
	c-1.2,0-2,0.1-3.6,0.3l-0.8,0.1v9.7h4.8h0.7c1.9,0,2.8-0.8,2.8-2.4l0-0.8l0-0.5h1.7v9.4h-1.7l0-0.5l0.1-0.8l0-0.2
	c0-1.5-1-2.3-2.7-2.3h-0.8H402v11.4h5.1h0.8c4.6,0,6.1-1,7.8-4.9c0.1-0.2,0.2-0.4,0.3-0.7l1.8,0.6l-2.6,7.5h-25.1v-1.5
	c0.6,0.1,1.4,0.2,2.3,0.2c2.4,0,3.8-1.3,3.8-3.8l0-1.7l0-1.4v-11.4l0-1.4l0-1.7c-0.1-2.4-1.4-3.8-3.7-3.8c-0.1,0-0.4,0-1,0.1
	l-0.7,0.1l-0.3,0.1v-1.5H415z M441.9,293.2v7.1h-1.6c-0.6-4.4-2.7-6.4-6.5-6.4c-2.9,0-5,1.7-5,3.9c0,1.8,1.1,3.1,4.1,4.5l3,1.4
	c5.6,2.6,7.4,4.7,7.4,8.5c0,5.1-4.6,8.6-11.5,8.6c-1.7,0-3.5-0.3-6.3-0.9c-1-0.2-1.1-0.2-1.8-0.3l0.3-8.1h1.7
	c0.4,4.6,2.9,7.3,6.8,7.3c3,0,5.3-2.1,5.3-4.8c0-2.4-1.2-3.5-6.8-6.4c-5.7-2.9-7.2-4.6-7.2-7.9c0-4.6,4-7.7,10-7.7
	c1.7,0,3.4,0.2,5.6,0.8c1.1,0.3,1.5,0.3,2.1,0.3L441.9,293.2z M468.2,293.2v7.1h-1.6c-0.6-4.4-2.6-6.4-6.5-6.4c-2.9,0-5.1,1.7-5.1,4
	c0,1.8,1.1,3,4.1,4.4l3,1.4c5.7,2.7,7.5,4.7,7.5,8.5c0,5.1-4.6,8.6-11.5,8.6c-1.8,0-3.2-0.2-6.3-0.9c-0.9-0.2-1.1-0.2-1.8-0.3
	l0.2-8.1h1.7c0.2,4.4,2.9,7.3,6.8,7.3c3,0,5.3-2.1,5.3-4.9c0-2.4-1-3.4-6.7-6.3c-5.7-2.9-7.2-4.6-7.2-7.9c0-4.6,4-7.7,10-7.7
	c1.7,0,3.6,0.3,5.6,0.8c1.1,0.3,1.4,0.3,2.1,0.3H468.2z M98.3,226.1l7.7,19.4l0.4,1.1c7.8,19.9,9.6,22.7,14.1,22.7
	c0.6,0,1.3-0.1,1.9-0.3v2.3H99V269c1,0.3,1.4,0.3,2.4,0.3c2.4,0,3.6-0.9,3.6-2.6c0-0.5-0.2-1.3-0.5-2.2l-2.5-6.8H87.3l-2,5.2l-0.4,1
	l-0.4,1.2c-0.1,0.5-0.3,1-0.3,1.5c0,1.7,1.5,2.8,4,2.8c0.8,0,1.2-0.1,2.5-0.3v2.3H72V269c0.9,0.2,1.3,0.3,2,0.3c3.4,0,5-1.8,7.9-8.6
	l1.1-2.6l0.6-1.5l12.7-30.4H98.3z M94.1,239.6l-5.7,15l11.6,0.2L94.1,239.6z M191.3,231v-2.3h13.3h1.9c1.4,0,3.6-0.1,7.4-0.2
	c1.8-0.1,3.2-0.1,4.2-0.1c7.8,0,12.4,3.4,12.4,9.1c0,5.5-3.7,9-10.9,10.6c8.6,0.6,12.6,4,12.6,10.5c0,8.3-6.5,12.8-18.6,12.8
	c-0.9,0-2.2,0-4.1-0.1l-4.1-0.1h-1.8h-13V269c1.2,0.2,2.2,0.3,3.4,0.3c5,0,6-1.8,6-10.5v-17.6c0-8.9-1-10.5-6.2-10.5
	C192.8,230.7,192.5,230.8,191.3,231z M208.6,247.2c1,0.2,2.3,0.4,3.3,0.4c5.8,0,10.1-4.1,10.1-9.5c0-4.2-3.6-7.4-8.5-7.4
	c-1.5,0-2.4,0.2-4.8,1V247.2z M208.6,268c1.9,0.4,3.4,0.6,5.1,0.6c5.5,0,9.4-4.2,9.4-10.2c0-5.5-4-8.6-11-8.6
	c-1.1,0-1.8,0.1-3.5,0.4L208.6,268L208.6,268z M239.3,231v-2.3h12.6h1.5l3.2-0.1l3.3-0.1c2.8-0.1,3.7-0.1,4.4-0.1
	c9.6,0,14.4,3.4,14.4,10.3c0,6.3-3.8,10-11.1,10.8c4.3,2.2,5.8,3.9,8.9,9.7c4.1,7.7,6.4,10,9.8,10c0.4,0,0.6,0,1.9-0.2v2.3h-4.6
	h-1.4l-2.1,0.1l-1.8,0c-4.2,0-6-1.3-8.7-6.5l-1.7-3.3c-4.5-8.5-6.5-10.2-11.5-10.3v7.4c0,8.8,1,10.5,6,10.5c1,0,1.8-0.1,2.9-0.3v2.3
	h-26.7V269c1.3,0.2,2.3,0.3,3.3,0.3c4.6,0,6.1-2,6.1-8.4v-2.1v-17.6v-2.1c0-6.4-1.4-8.4-6-8.4C240.9,230.7,240.2,230.8,239.3,231z
	 M256.3,249c1.3,0.1,1.9,0.1,2.8,0.1c6.7,0,10.3-3.4,10.3-9.8c0-5.3-3.4-8.8-8.4-8.8c-1.4,0-3.2,0.3-4.7,0.8V249z M323.1,231v-2.3
	h13.3h1.6l3.1-0.1l3.6-0.1c2.5-0.1,4.2-0.1,5.2-0.1c14.9,0,22.8,6.6,22.8,19.1c0,14.5-10.3,23.9-26.3,23.9l-4.7-0.1l-3.1,0h-2.1
	h-13.7V269c1.2,0.2,2.4,0.3,3.5,0.3c5.1,0,6.2-1.8,6.2-10.5v-17.6c0-8.8-1-10.5-6.3-10.5C324.7,230.7,324.2,230.8,323.1,231z
	 M341,267.7c2.8,0.9,4.4,1.2,6.7,1.2c9.3,0,15.3-8,15.3-20.6c0-11-5.6-17.4-15.4-17.4c-2.2,0-4.1,0.3-6.6,1.1V267.7z M171.9,294.1
	v-1.5h8.2l1,0l2.1,0l2.1-0.1c1.1,0,2.2-0.1,2.8-0.1c6.3,0,9.4,2.2,9.4,6.7c0,4.1-2.4,6.5-7.2,7c2.9,1.6,3.7,2.5,5.8,6.3
	c3.1,5.6,4,6.5,6.8,6.5c0.2,0,0.4,0,0.8-0.1v1.5h-3h-0.9l-1.4,0l-0.9,0c-3.1,0-4.1-0.8-5.9-4.2c-0.5-0.9-0.9-1.6-1.1-2.1
	c-2.8-5.4-4.1-6.6-7.5-6.7v4.8v1.4c0,4.2,0.9,5.5,3.9,5.5c0.8,0,1.4-0.1,2-0.2v1.5h-17.3v-1.5c0.6,0.1,1.4,0.2,2.2,0.2
	c2.9,0,3.9-1.3,3.9-5.5v-1.4v-11.4v-1.4c0-4.1-1-5.5-3.7-5.5c-0.1,0-0.4,0-0.9,0.1l-0.8,0.1L171.9,294.1z M183,305.8
	c1,0.1,1.3,0.1,2,0.1c4.2,0,6.5-2.2,6.5-6.3c0-3.6-2.1-5.8-5.5-5.8c-0.9,0-2,0.2-3,0.5V305.8z M338.5,307.6v4.5l0,1.3l0,1.6
	c0.1,2.6,1.3,3.9,3.7,3.9c0.8,0,1.4-0.1,2-0.2v1.5h-16.8v-1.5c0.5,0.1,1.1,0.2,1.9,0.2c2.8,0,3.8-1.4,3.8-5.5v-1.3v-11.4v-1.3
	c0-4.1-1-5.6-3.7-5.6c-0.2,0-0.5,0-1,0.1l-0.7,0.1l-0.4,0.1v-1.5h8.2l0.9,0l1.7,0l2.3-0.1c1.3-0.1,2.2-0.1,2.7-0.1
	c6.6,0,9.6,2.2,9.6,7c0,5-4.2,8.5-10.4,8.5H342l-1.7-0.1C339.3,307.7,339.2,307.7,338.5,307.6z M338.5,305.7
	c1.1,0.2,1.6,0.2,2.4,0.2c3.9,0,6.2-2.4,6.2-6.3c0-3.5-2.2-5.7-5.5-5.7c-1,0-1.9,0.2-3.1,0.6V305.7z M356.9,294.1v-1.5h8.1l1,0
	l2.1,0l2.1-0.1c1.1,0,2.2-0.1,2.8-0.1c6.4,0,9.4,2.1,9.4,6.7c0,4.1-2.4,6.5-7.2,7c2.7,1.4,3.8,2.6,5.8,6.3c3.1,5.5,4,6.5,6.8,6.5
	c0.2,0,0.4,0,0.8-0.1v1.5h-3h-0.9l-1.4,0l-0.9,0c-3.1,0-4.1-0.8-5.9-4.2c-0.5-0.9-0.9-1.6-1.1-2.1c-2.8-5.4-4.1-6.6-7.5-6.7v4.8v1.4
	c0,4.2,0.9,5.5,3.9,5.5c0.8,0,1.4-0.1,2-0.2v1.5h-17.4v-1.5c0.6,0.1,1.4,0.2,2.3,0.2c2.9,0,3.8-1.3,3.8-5.5v-1.4v-11.4v-1.4
	c0-4-1-5.5-3.7-5.5c-0.1,0-0.4,0-0.9,0.1l-0.8,0.1L356.9,294.1z M368,305.8c0.9,0.1,1.3,0.1,1.9,0.1c4.3,0,6.6-2.2,6.6-6.3
	c0-3.5-2.1-5.8-5.5-5.8c-1,0-2,0.2-3,0.5L368,305.8z"/>
<path class="st0" d="M-100.2,218.7l-2.7,0h-5.9c-2.8,0-7.7-0.1-14.1-0.4c0,0-1.5,0-2.2-0.1c0.3,3,0.4,4.3,0.4,8.7l0,7.8
	c0,0,0.1,8,0.1,8v42.1c0,26.4,6.1,34.6,34,48.3l5.2,2.5c3.6,1.7,7.7,3.7,11.6,5.7c0,0,2,1.1,2.4,1.2c0.3-0.2,2.4-1.2,2.4-1.2
	c3.9-2.1,8-4,11.6-5.7l5.2-2.5c27.9-13.7,34.2-21.8,34.2-48.3v-42.1l0.1-8l0-7.8c0-4.4,0.1-5.7,0.4-8.7c-0.8,0-2.4,0.1-2.4,0.1
	c-6.4,0.3-11.3,0.4-14.1,0.4h-5.9l-2.7,0H-100.2z"/>
<path class="st1" d="M-59.9,283.6l0.1,0.3v52.9c0.8-0.4,1.6-0.8,2.4-1.1l5.2-2.5c27.9-13.7,34.2-21.8,34.2-48.3v-1.2h-41.7
	L-59.9,283.6z M-124.6,283.7v1.2c0,26.4,6.1,34.6,34,48.3l5.2,2.5c0.8,0.4,1.6,0.8,2.4,1.1v-52.9l0.1-0.3l-0.2,0.1H-124.6z
	 M-19.9,218.3c-6.4,0.3-11.3,0.4-14.1,0.4h-5.9l-2.7,0h-17.2v42l-0.1,0.4l0.4-0.1H-18v-18.2l0.1-8l0-7.8c0-4.4,0.1-5.7,0.4-8.7
	C-18.3,218.3-19.9,218.3-19.9,218.3z M-124.6,260.9h41.4l0.4,0.1l-0.1-0.4v-42h-17.2l-2.7,0h-5.9c-2.8,0-7.7-0.1-14.1-0.4
	c0,0-1.5,0-2.2-0.1c0.3,3,0.4,4.3,0.4,8.7l0,7.8c0,0,0.1,8,0.1,8V260.9z"/>
<path d="M-20,217.7c-6.4,0.3-11.3,0.4-14.1,0.4h-5.9l-2.7,0h-57.7l-2.7,0h-5.9c-2.8,0-7.6-0.1-14.1-0.4l-3.1-0.1l0.1,0.7
	c0.4,3.5,0.4,4.6,0.4,9.3l0,7.8l0.1,7.4v41.4c0,26.7,6.1,35.5,34.3,49.4l5.2,2.5c3.6,1.7,7.7,3.7,11.6,5.7l2.9,1.5l2.9-1.5
	c3.9-2,8-4,11.6-5.7l5.2-2.5c28.2-13.8,34.3-22.6,34.3-49.4v-41.4l0.1-7.4l0-7.8c0-4.7,0.1-5.8,0.4-9.3l0.1-0.7L-20,217.7z
	 M-18.5,227.5l0,7.8l-0.1,7.4v41.4c0,26.4-5.7,34.6-33.6,48.3l-5.2,2.5c-3.6,1.7-7.7,3.7-11.6,5.7c0,0-2,1.1-2.4,1.2
	c-0.3-0.2-2.4-1.2-2.4-1.2c-3.9-2.1-8-4-11.6-5.7l-5.2-2.5c-27.9-13.7-33.6-21.8-33.6-48.3v-41.4l-0.1-7.4l0-7.8
	c0-4.4-0.1-5.7-0.4-8.7c0.7,0,1.8,0.1,1.8,0.1c6.4,0.3,11.3,0.4,14.1,0.4h5.9l2.7,0h57.7l2.7,0h5.9c2.8,0,7.7-0.1,14.1-0.4
	c0,0,1,0,1.8-0.1C-18.4,221.9-18.5,223.1-18.5,227.5z"/>
<path d="M-91.8,239.7l0.1,0.5c0.1,0.5,0.2,0.9,0.3,1.1c0.4,2,0.8,2.6,1.8,2.6c0.6,0,1-0.3,1.2-0.8l0.2-0.7c0.1-0.2,0.2-0.3,0.3-0.3
	c0.4,0,0.6,0.4,0.6,1.3c0,0.3,0.1,0.8,0.3,1.7c0.1,0.5,0.1,1.1,0.1,1.6c0,0.4,0,0.6-0.2,1.1c0.1,0.7,0.2,1.6,0.2,2.2
	c0,0.9-0.2,1.7-0.4,2.1c0.1,0.6,0.2,0.8,0.2,1.3c0,0.4,0,0.8-0.1,1.2c-0.2,0.9-0.2,1.1-0.2,1.2c0,0.2,0,0.3,0.1,0.5
	c0.1,0.2,0.1,0.3,0.1,0.4c0,0.1-0.1,0.2-0.1,0.2l-0.7-0.3l-0.8-0.4c-0.3-0.1-0.4-0.3-0.8-0.6c-0.7,0.6-0.9,0.7-2.7,1.2
	c-0.4,0.1-0.6,0.2-0.8,0.3c-0.2,0.2-0.4,0.3-0.5,0.3c-0.3,0-0.4-0.5-0.4-1.5c0-0.8,0.1-1.5,0.2-2c-0.5-0.2-1-0.3-1.3-0.3
	c-0.1,0-0.2,0-0.5,0.1l-0.1,0c-0.1,0-0.2-0.2-0.2-0.3c0-0.1,0.1-0.5,0.2-0.8l0.4-0.8c0.1-0.3,0.4-0.7,0.9-1c0.4-0.3,0.7-0.5,0.9-0.5
	l1.3-0.3c0.8-0.1,1.2-0.6,1.2-1.1c0-0.5-0.3-0.9-1.1-1.1l-1.5-0.5c-0.4-0.1-0.9-0.4-1.4-0.7c-0.9-0.5-1-0.6-1.2-0.6
	c-0.3,0-0.5,0.2-0.5,0.6c0,0.6,0.4,1.1,1,1.1c0.1,0,0.3,0,0.4-0.1c0.2-0.1,0.3-0.1,0.4-0.1c0.2,0,0.3,0.1,0.3,0.3l0,0.2l-0.1,0.6
	c-0.1,0.5-0.4,1.1-1.1,2.1l-0.3,0.4c-0.3,1.1-1,2.2-1.9,2.8c-0.2,0.2-0.4,0.3-0.4,0.3c0,0-0.1,0.2-0.3,0.5c-0.1,0.1-0.3,0.4-0.7,0.8
	c-0.3,0.3-0.6,0.6-0.9,0.8c-0.4,0.3-0.6,0.5-0.7,0.6l-0.4,0.6c-0.1,0.1-0.2,0.2-0.3,0.2c-0.3,0-0.6-0.3-0.8-0.9
	c-0.1-0.4-0.3-0.5-0.5-0.5c-0.1,0-0.3,0-0.6,0.1l-0.5,0.1h-1.3c-0.6,0-1.6,0.2-2,0.4c-0.2,0.1-0.3,0.1-0.4,0.1
	c-0.1,0-0.1-0.1-0.2-0.2c-0.1-0.1-0.1-0.2-0.1-0.3c0-0.6,0.5-1.9,1.1-2.8c0.4-0.6,0.5-0.8,1-1.1c-0.1-0.6-0.5-1.1-1-1.2l-0.6-0.2
	c-0.1,0-0.1-0.1-0.1-0.2c0-0.2,0.3-0.4,0.8-0.7c0.7-0.4,1.4-0.6,2-0.6c0.6,0,1.2,0.2,1.8,0.8c1,0.8,1.2,0.9,1.7,0.9
	c0.8,0,1.5-0.7,1.5-1.4c0-0.5-0.3-1-1-1.9c-1-1.3-1.3-1.9-1.3-2.9c0-0.6,0.2-1.3,0.4-1.7l0.4-0.5c0.1-0.1,0.1-0.2,0.1-0.3
	c0-0.2-0.3-0.4-0.6-0.4c-0.6,0-1.7,0.4-2.5,0.9c-0.4,0.3-0.7,0.6-0.7,0.8c0,0.1,0.1,0.2,0.1,0.3l0.4,0.3c0.1,0,0.1,0.1,0.1,0.1
	c0,0.1-0.1,0.2-0.1,0.3l-0.7,0.9c-0.4,0.5-0.9,1.1-1.5,1.6c-0.2,0.2-0.3,0.3-0.4,0.4c0,0-0.1,0.2-0.3,0.5c-0.3,0.5-0.9,1.2-1.6,1.6
	c-0.3,0.2-0.4,0.3-0.5,0.4c-0.1,0.1-0.1,0.2-0.3,0.5c-0.1,0.2-0.3,0.4-0.5,0.8c-0.4,0.5-0.6,0.9-0.9,1.1l-1,1
	c-0.3,0.3-0.6,0.9-1,2.2c-0.3,0.8-0.5,1.2-0.6,1.2c-0.1,0-0.2-0.1-0.3-0.2c-0.7-0.8-1.3-1.3-1.6-1.3c-0.1,0-0.2,0.1-0.4,0.2
	c-0.3,0.2-0.6,0.3-1,0.4l-1.3,0.3c-1,0.2-1.4,0.4-2,1.1c-0.1,0.2-0.3,0.3-0.3,0.3c-0.1,0-0.2-0.2-0.2-0.4l0-0.3l0.2-1
	c0.2-1,0.4-1.8,0.7-2.3l0.6-1.1c0.1-0.2,0.2-0.4,0.2-0.6c0-0.8-0.9-1.6-1.9-1.6c-0.3,0-0.4-0.1-0.4-0.2c0-0.2,0.3-0.5,0.7-0.8
	c0.7-0.5,1.7-0.9,2.3-0.9c0.4,0,0.9,0.1,1.6,0.4l0.8,0.3c0.3,0.1,0.6,0.2,0.8,0.2c0.8,0,1.7-0.8,2.6-2.5c0.4-0.8,0.6-1.3,0.6-1.8
	c0-0.9-0.4-1.5-1.1-1.5c-0.5,0-1.1,0.3-1.5,0.7c-0.4,0.4-0.6,0.7-0.6,1.1l0,0.4v0.1c0,0.3-0.1,0.5-0.3,0.5c-0.3,0-0.8-0.5-2.2-2.2
	c-1-1.3-1.3-1.8-1.3-3c-1.2-1.5-1.5-2.2-1.5-3.3l0.1-0.7c-0.8-1-1.1-1.5-1.1-2.5c0-0.3,0.1-0.5,0.3-0.9c-0.4-0.6-0.6-0.9-0.7-1.4
	l-0.2-0.8c-0.1-0.5-0.3-1-0.6-1.3c-0.3-0.5-0.4-0.5-0.4-0.7c0-0.4,0.3-0.6,1.5-0.9c-0.1-0.3-0.1-0.6-0.1-0.8c0-0.2,0-0.4,0.1-0.8
	l0.3-1.3c0.1-0.5,0.2-0.9,0.2-1.1c0-0.3,0-0.4-0.3-1.1c-0.1-0.4-0.2-0.7-0.3-0.8c-0.1-0.2-0.2-0.4-0.2-0.5c0-0.1,0.1-0.2,0.3-0.2
	c0.4,0,1.3,0.6,2.3,1.4c2,1.7,2.5,2.4,2.8,4.4c0,0.2,0.1,0.4,0.1,0.7c1,0.7,1.5,1.6,1.5,2.5c0,0.7-0.3,1.6-0.7,2.3l-0.7,1.1
	c-0.2,0.3-0.3,0.7-0.3,1.2c0,0.7,0.2,1.3,0.7,2.1c0.6,1,1,1.3,1.6,1.3c0.9,0,1.8-1.6,1.8-3.5v-0.3v-0.6c0-0.4,0-0.7,0.1-1.2
	c0.1-0.6,0.1-0.9,0.1-1l0-0.9l0-0.6c0-0.2-0.1-0.4-0.4-0.7l-0.8-1c-1.1-1.2-1.8-2.4-1.8-3.3c0-1.1,0.8-1.9,1.8-1.9
	c0.2,0,0.4,0,0.8,0.1v-0.2c0-1.6,0.3-2.7,0.8-2.7l0.2,0.1l0.6,0.6l0.8,0.5l0.2,0.2c0-0.4,0-0.5,0.5-1c0.1-0.1,0.3-0.3,0.5-0.7
	c0.2-0.3,0.3-0.4,0.4-0.5c0.1-0.1,0.1-0.2,0.2-0.3c0.1-0.2,0.2-0.3,0.3-0.3c0.1,0,0.2,0.1,0.3,0.5c0.1,0.3,0.1,0.3,0.8,0.9
	c0.2,0.2,0.4,0.3,0.4,0.5c0.1,0.1,0.2,0.3,0.3,0.7c0,0.1,0.1,0.2,0.1,0.3c0.3-0.3,0.4-0.4,0.7-0.6l0.5-0.3c0.2-0.1,0.3-0.2,0.4-0.2
	c0,0,0.1,0.1,0.2,0.2c0.1,0.1,0.1,0.3,0.3,0.5c0.4,0.7,0.5,1,0.5,1.3v0.3v0.4c1.2,0.4,1.6,1,1.6,2.2c0,0.9-0.5,1.9-1.4,3
	c-0.6,0.7-0.7,0.9-0.7,1.4c0,2.6,1.8,4.1,5.1,4.2l2.4,0c1.5,0,2.5,0.2,3.9,0.6c1.7,0.6,2.2,0.7,2.7,0.7c0.2,0,0.3-0.1,0.5-0.1
	c0.1-0.1,0.2-0.2,0.2-0.3c0-0.5-0.9-0.9-3.8-1.7c-5.9-1.7-8.4-4-8.4-7.9c0-3,2.5-5.3,5.8-5.3c1,0,2.7,0.3,3.6,0.6l1.5,0.5
	c0.3,0.1,0.5,0.1,0.8,0.1c0.5,0,0.8-0.4,0.8-1.3c0-0.4,0.1-0.6,0.4-0.6c0.4,0,1.1,0.5,1.6,1.3c0.6,0.8,1,1.7,1,2.3
	c0,0.8-0.4,1.4-1.3,1.9c-0.8,1.2-1.8,1.8-3.1,1.8c-1,0-2.5-0.6-4.9-2c-0.8-0.5-1.3-0.6-1.7-0.6c-0.6,0-1,0.4-1,0.9
	c0,0.5,0.4,0.8,1.5,1.2c1.5,0.5,1.9,0.8,2.5,1.4c1.8,0.3,2.6,0.6,3.8,1.5c3.1,1,5.1,3.1,5.1,5.6c0,2.4-1.6,4.1-3.9,4.1
	C-90.6,239.9-90.9,239.9-91.8,239.7z M-25,239.7l0.1,0.5c0.1,0.5,0.2,0.9,0.3,1.1c0.4,2,0.8,2.6,1.8,2.6c0.6,0,1-0.3,1.2-0.8
	l0.2-0.7c0.1-0.2,0.2-0.3,0.3-0.3c0.4,0,0.6,0.4,0.6,1.3c0,0.3,0.1,0.9,0.2,1.7c0.1,0.6,0.1,1.1,0.1,1.7c0,0.4-0.1,0.6-0.2,1
	l0.1,0.4c0.1,0.7,0.1,1,0.1,1.3c0,1.5-0.1,2-0.4,2.6c0.1,0.6,0.2,0.9,0.2,1.3c0,0.3,0,0.6-0.1,1.3l-0.1,1.1l0,0.6
	c0.1,0.2,0.1,0.4,0.1,0.4c0,0.1-0.1,0.2-0.1,0.2l-0.7-0.3l-0.8-0.4c-0.3-0.1-0.4-0.3-0.8-0.6c-0.7,0.6-0.8,0.7-1.6,0.9
	c-1.2,0.3-1.6,0.5-1.9,0.6c-0.2,0.2-0.4,0.3-0.5,0.3c-0.3,0-0.5-0.5-0.5-1.3c0-1.1,0.1-1.7,0.3-2.2c-0.7-0.2-1-0.3-1.3-0.3
	c-0.1,0-0.1,0-0.5,0.1l-0.2,0c-0.1,0-0.2-0.1-0.2-0.3c0-0.3,0.3-1,0.6-1.6c0.4-0.8,1.2-1.5,1.8-1.6l1.3-0.3c0.8-0.1,1.2-0.6,1.2-1.1
	c0-0.5-0.3-0.8-1.1-1.1l-1.5-0.5c-0.5-0.2-1-0.4-1.4-0.7c-0.4-0.2-0.6-0.4-0.8-0.5c-0.1-0.1-0.3-0.1-0.4-0.1c-0.3,0-0.5,0.2-0.5,0.6
	c0,0.6,0.5,1.1,1,1.1c0.1,0,0.3,0,0.4-0.1c0.2-0.1,0.3-0.1,0.3-0.1c0.2,0,0.3,0.2,0.3,0.4c0,0.6-0.4,1.7-0.8,2.2l-0.4,0.5l-0.3,0.4
	c-0.1,0.9-1,2.2-1.9,2.8c-0.2,0.1-0.4,0.2-0.4,0.3c0,0-0.1,0.2-0.3,0.5c-0.1,0.1-0.3,0.4-0.7,0.8c-0.3,0.3-0.6,0.6-0.9,0.8
	c-0.4,0.3-0.6,0.5-0.7,0.6l-0.4,0.6c-0.1,0.1-0.2,0.2-0.3,0.2c-0.3,0-0.6-0.3-0.8-0.9c-0.1-0.4-0.3-0.5-0.5-0.5
	c-0.1,0-0.3,0-0.6,0.1l-0.5,0.1h-1.3c-0.7,0-1.6,0.2-2,0.4c-0.2,0.1-0.3,0.1-0.4,0.1c-0.2,0-0.3-0.2-0.3-0.5c0-1.1,0.9-2.8,2-3.9
	c-0.2-0.7-0.5-1.1-1-1.2c-0.4-0.1-0.6-0.2-0.6-0.2c-0.1,0-0.1-0.1-0.1-0.2c0-0.2,0.3-0.4,0.8-0.7c1-0.5,1.3-0.6,1.9-0.6
	c0.6,0,1.2,0.2,1.9,0.8c1,0.8,1.2,0.9,1.7,0.9c0.8,0,1.5-0.7,1.5-1.4c0-0.5-0.3-1-1-1.9c-1-1.2-1.3-2-1.3-3c0-0.7,0.1-1.1,0.8-2.1
	c0.1-0.2,0.1-0.3,0.1-0.4c0-0.2-0.3-0.4-0.7-0.4c-0.4,0-0.9,0.1-1.5,0.4c-1.1,0.5-1.7,1-1.7,1.2c0,0.1,0.1,0.2,0.2,0.3l0.4,0.3
	c0.1,0,0.1,0.1,0.1,0.1s-0.1,0.2-0.1,0.3c-0.1,0.1-0.3,0.4-0.7,0.9c-0.5,0.7-1,1.2-1.5,1.6c-0.2,0.1-0.3,0.3-0.4,0.4l-0.3,0.5
	c-0.2,0.4-1,1.2-1.5,1.6c-0.3,0.2-0.4,0.3-0.5,0.4c-0.1,0.1-0.2,0.3-0.3,0.5c-0.4,0.6-1,1.5-1.3,1.8l-1,1c-0.3,0.3-0.7,1.1-1,2.2
	c-0.3,0.9-0.5,1.2-0.6,1.2c-0.1,0-0.2-0.1-0.3-0.2c-0.7-0.8-1.3-1.3-1.6-1.3c-0.1,0-0.2,0.1-0.4,0.2c-0.3,0.2-0.6,0.3-1,0.4
	l-1.3,0.3c-1.1,0.2-1.5,0.4-2,1.1c-0.1,0.2-0.2,0.3-0.3,0.3c-0.1,0-0.2-0.2-0.2-0.4l0-0.3c0,0,0.1-0.4,0.2-1c0.2-1,0.4-1.8,0.7-2.3
	l0.6-1.1c0.1-0.2,0.2-0.4,0.2-0.6c0-0.8-0.8-1.5-1.9-1.7c-0.2,0-0.4-0.1-0.4-0.3c0-0.2,0.3-0.5,0.7-0.8c0.8-0.6,1.6-0.9,2.2-0.9
	c0.4,0,0.9,0.1,1.6,0.4l0.8,0.3c0.3,0.1,0.6,0.2,0.8,0.2c0.8,0,1.7-0.8,2.6-2.5c0.4-0.8,0.6-1.3,0.6-1.8c0-0.9-0.4-1.4-1.1-1.4
	c-0.6,0-1.1,0.2-1.5,0.7c-0.4,0.4-0.6,0.8-0.6,1.1l0,0.4l0,0.2c0,0.3-0.1,0.4-0.3,0.4c-0.3,0-0.6-0.3-1.2-1c-0.3-0.3-0.6-0.7-1-1.2
	c-1.1-1.3-1.3-1.8-1.4-3c-1.2-1.5-1.5-2.2-1.5-3.3l0.1-0.7c-0.9-1-1-1.4-1-2.5c0-0.5,0-0.6,0.2-1c-0.4-0.6-0.6-0.9-0.7-1.4l-0.2-0.8
	c-0.1-0.5-0.3-1-0.6-1.3c-0.3-0.4-0.4-0.5-0.4-0.7c0-0.4,0.4-0.6,1.3-0.8l0.3-0.1c-0.1-0.3-0.1-0.6-0.1-0.8c0-0.2,0-0.4,0.1-0.8
	l0.3-1.3c0.1-0.5,0.1-0.9,0.1-1.2c0-0.3-0.1-0.6-0.2-1.1c-0.1-0.4-0.2-0.6-0.4-0.8c-0.1-0.2-0.2-0.4-0.2-0.5c0-0.1,0.1-0.2,0.3-0.2
	c0.1,0,0.2,0.1,0.4,0.1c1.2,0.7,2.5,1.7,3.5,2.7c0.8,0.9,1.1,1.6,1.3,3.6c1.1,0.8,1.5,1.5,1.5,2.7c0,0.7-0.2,1.3-0.7,2.1
	c-0.4,0.7-0.7,1-0.7,1.1c-0.2,0.4-0.3,0.8-0.3,1.2c0,0.6,0.2,1.2,0.7,2.1c0.5,0.9,1,1.3,1.6,1.3c0.9,0,1.8-1.6,1.8-3.4v-0.3v-1
	l0.1-0.9l0.1-1l0.1-0.9l0-0.5c0-0.4-0.1-0.4-1.2-1.6c-1.2-1.3-1.8-2.4-1.8-3.4c0-1,0.8-1.8,1.8-1.8c0.2,0,0.4,0,0.8,0.1v-0.4l0-0.8
	l0.2-0.9c0.2-0.7,0.3-0.9,0.5-0.9l0.2,0.1l0.6,0.6l0.8,0.5l0.2,0.2c0.1-0.4,0.1-0.5,0.5-1c0.2-0.2,0.4-0.4,0.5-0.7l0.4-0.5l0.2-0.3
	c0.1-0.2,0.2-0.3,0.3-0.3c0.1,0,0.2,0.1,0.3,0.5c0.1,0.2,0.2,0.3,0.3,0.5l0.5,0.4c0.4,0.3,0.6,0.8,0.8,1.5c0.3-0.4,0.4-0.5,0.7-0.6
	l0.6-0.3c0.2-0.1,0.3-0.2,0.4-0.2c0,0,0.1,0.1,0.2,0.2c0.1,0.2,0.2,0.4,0.3,0.5c0.5,0.7,0.5,0.8,0.5,1.3v0.3v0.4
	c1.2,0.3,1.6,0.9,1.6,2.2c0,1-0.4,1.9-1.4,3c-0.6,0.7-0.7,1-0.7,1.5c0,2.5,1.9,4,5.1,4.1l2.4,0c1.5,0,2.5,0.2,3.9,0.6
	c1.7,0.5,2.2,0.7,2.7,0.7c0.4,0,0.7-0.2,0.7-0.4c0-0.5-0.9-0.9-3.8-1.7c-5.9-1.7-8.4-4-8.4-7.9c0-3,2.5-5.3,5.8-5.3
	c1,0,2.6,0.3,3.6,0.6l1.5,0.5c0.3,0.1,0.5,0.1,0.8,0.1c0.5,0,0.7-0.3,0.8-1.3c0-0.4,0.2-0.6,0.4-0.6c0.4,0,1.1,0.6,1.6,1.3
	c0.5,0.8,0.9,1.7,0.9,2.4c0,0.8-0.4,1.3-1.3,1.8c-0.8,1.2-1.8,1.8-3.1,1.8c-1,0-2.7-0.7-4.9-2c-0.9-0.5-1.2-0.6-1.7-0.6
	c-0.6,0-1.1,0.4-1.1,0.9c0,0.5,0.4,0.8,1.5,1.2c1.7,0.6,2.1,0.8,2.5,1.4c1.8,0.3,2.6,0.6,3.8,1.5c3.3,1,5.1,3,5.1,5.6
	c0,2.3-1.6,4-3.8,4C-23.8,239.9-24.1,239.9-25,239.7z M-91.1,306.8c0.3,0.8,0.4,1.2,0.5,1.7l0.1,1.5c0.1,1.5,0.6,2.2,1.5,2.2
	c0.3,0,0.6-0.1,0.8-0.3l0.4-0.4l0.2-0.1c0.3,0,0.4,0.2,0.4,0.5l0,0.6c0,0.3,0,0.8,0.1,1.6c0.1,0.5,0.1,1,0.1,1.4
	c0,0.8-0.1,1-0.3,1.7c0.3,0.7,0.4,1.5,0.4,2.2c0,0.8-0.1,1.3-0.4,1.7c0.1,0.6,0.2,0.9,0.2,1.2c0,0.4-0.1,0.8-0.1,1.3
	c-0.1,0.7-0.2,1.3-0.1,1.7v0.1c0,0.2-0.1,0.3-0.2,0.3s-0.3-0.1-0.4-0.3c-0.2-0.3-0.4-0.4-0.5-0.4c-0.3,0-0.3,0.1-0.7,1.2
	c-0.1,0.3-0.4,0.8-0.9,1.3c-0.4,0.4-0.6,0.8-0.6,1c-0.1,0.4-0.2,0.7-0.2,0.8c0,0.1-0.1,0.2-0.2,0.2h-0.1c-0.6,0-1.3-1.3-2-3.6
	c-0.2-0.7-0.4-1-0.8-1c-0.3,0-0.5,0.2-0.6,0.4l-0.2,0.5c0,0.1-0.1,0.1-0.2,0.1c-0.3,0-0.7-0.5-1-1.2c-0.2-0.5-0.4-1.1-0.4-1.6
	c0-1.1,0.8-1.9,3.3-3.3c1.1-0.6,1.5-1.4,1.5-2.8c0-1.1-0.3-1.7-1.3-2.5c-0.8-0.6-1.2-0.8-1.6-0.8c-0.3,0-0.6,0.2-0.6,0.5
	c0,0.3,0.2,0.5,0.7,0.7c0.6,0.2,0.8,0.4,0.8,0.6c0,0.2-0.2,0.7-0.6,1.3c-0.4,0.6-0.6,0.8-1.1,1.2c-0.2,1-0.6,1.6-1.7,2.3
	c-0.2,0.6-0.3,0.8-0.7,1.3l-0.8,1c-0.2,0.3-0.5,0.8-0.5,1.1c-0.1,0.5-0.1,0.6-0.3,0.6c-0.3,0-0.9-0.5-1.5-1.2
	c-0.3-0.4-0.4-0.6-0.5-1.2c-0.4,0.3-0.5,0.3-1.2,0.4c-0.4,0.1-0.8,0.1-1,0.3c-0.6,0.3-0.7,0.4-0.8,0.4c-0.1,0-0.2-0.1-0.2-0.3l0-0.8
	c0-1.1,0.4-2.3,1.1-3.2c-0.6-0.5-1.3-0.9-1.8-0.9c-0.2,0-0.3-0.1-0.3-0.1c0-0.1,0.1-0.4,0.3-0.7c0.3-0.3,0.5-0.6,0.6-0.7
	c0.5-0.4,1.4-0.8,2.1-0.8c0.5,0,1.1,0.2,2,0.5c0.3,0.1,0.6,0.2,0.9,0.2c0.4,0,0.6-0.3,0.6-0.7c0-0.6-0.3-1.7-1-3.3
	c-0.5-1.1-0.7-1.8-0.7-2.3c0-1.2,0.6-2.5,1.3-2.9c-0.3-0.2-0.5-0.2-0.8-0.2c-0.4,0-0.6,0.1-1.1,0.4c-0.5,0.3-0.8,0.6-0.8,0.8
	c0,0.1,0.1,0.2,0.3,0.3c0.3,0.2,0.3,0.3,0.3,0.5c0,0.9-0.7,2-1.8,2.8c-0.2,1.2-0.8,2-1.9,2.5c-0.1,0.7-0.3,0.9-0.8,1.6
	c-0.9,1.3-1.1,1.7-1.3,2.5c-0.1,0.4-0.2,0.5-0.3,0.5c-0.2,0-0.5-0.2-0.8-0.6c-0.3-0.3-0.5-0.6-0.6-0.7c-0.2-0.2-0.2-0.5-0.4-1.1
	c-0.3,0.1-0.3,0.1-0.5,0.1l-0.5,0l-0.4,0c-0.8,0-1.6,0.2-2,0.4c-0.2,0.1-0.3,0.1-0.3,0.1c-0.2,0-0.4-0.5-0.4-1.1
	c0-1.3,0.4-2.3,1.2-3.5c-0.3-0.3-0.4-0.3-0.7-0.6c-0.1-0.1-0.2-0.2-0.3-0.3l-0.4-0.2c-0.1-0.1-0.2-0.2-0.2-0.2
	c0-0.2,0.5-0.7,1.1-1.1c0.7-0.4,1.2-0.6,1.7-0.6c0.6,0,0.9,0.1,1.6,0.8c0.5,0.4,0.9,0.6,1.1,0.6c0.2,0,0.4-0.1,0.5-0.3
	c0.1-0.2,0.2-0.3,0.2-0.5c0-0.7-0.8-1.8-1.7-2.4c-0.7-0.4-1.4-0.7-2.1-0.7c-1,0-1.8,0.5-2.2,1.3l-0.4,0.8c-0.1,0.2-0.2,0.3-0.3,0.3
	c-0.2,0-0.4-0.1-1.2-1l-0.9-1.1c-0.3-0.3-0.5-0.6-0.6-0.9c-0.1-0.3-0.1-0.4-0.2-0.5c0-0.1-0.2-0.1-0.4-0.3c-0.7-0.5-1.2-1.5-1.5-2.9
	c0-0.1-0.1-0.3-0.1-0.5c-0.9-1.1-1.4-2.4-1.4-3.5c0-0.1,0-0.2,0.1-0.5c-0.5-0.5-0.6-0.6-1-2c-0.3-1-0.5-1.4-0.8-1.8
	c-0.1-0.1-0.1-0.2-0.1-0.3c0-0.2,0.3-0.4,0.8-0.4c0.5-0.1,0.5-0.1,0.7-0.1l0.7,0.1l0-1c0-0.6,0-1,0.2-1.6c0.1-0.3,0.1-0.6,0.1-0.7
	c0-0.1,0-0.3-0.1-0.6c0-0.3-0.1-0.4-0.1-0.5c-0.1-0.1-0.1-0.2-0.1-0.3c0-0.1,0.1-0.2,0.2-0.2c0.1,0,0.3,0.1,0.5,0.2
	c0.6,0.3,1.1,0.6,1.5,0.9c1.2,1,2.2,2.4,2.2,3.4l0,0.3c-0.1,0.3-0.1,0.5-0.1,0.5c0,0.2,0.1,0.4,0.3,0.6l0.4,0.5
	c0.3,0.5,0.6,1,0.6,1.4c0,0.3-0.1,0.5-0.6,1.3c-0.4,0.6-0.6,1.1-0.6,1.6c0,0.6,0.3,1.5,0.7,2.2c0.4,0.7,0.9,1.1,1.4,1.1
	c0.8,0,1.1-0.7,1.3-2.6c0.1-1,0.2-1.9,0.3-2.7l0-0.5c0-0.2-0.1-0.3-0.4-0.7l-1.1-1.2c-1-1.2-1.3-1.8-1.3-2.7c0-1,0.6-1.6,1.6-1.6
	l0.4,0v-0.3c0-0.2,0.1-0.6,0.2-1c0.2-0.8,0.5-1.3,0.7-1.3c0.1,0,0.2,0.1,0.3,0.2c0.1,0,0.3,0.1,0.6,0.3c0.2,0.1,0.3,0.1,0.7,0.4
	c0.2-0.6,0.3-0.9,0.6-1.2c0.5-0.6,1-1.1,1.2-1.1c0.1,0,0.3,0.2,0.6,0.4l0.7,0.7c0.1,0.1,0.3,0.3,0.4,0.7l0.1,0.3
	c0.2-0.1,0.3-0.2,0.4-0.3c0.3-0.2,0.5-0.3,0.6-0.3c0.4-0.2,0.7-0.3,0.7-0.3c0.2-0.1,0.3-0.2,0.4-0.2c0.1,0,0.2,0.2,0.4,1.4
	c0.2,0.8,0.2,1,0.3,1.6c1.1,0.2,1.7,0.8,1.7,2c0,1.1-0.6,2.3-1.8,3.6c-0.3,0.4-0.4,0.5-0.4,0.9c0,3.1,1.1,4.1,5.1,4.5
	c2.4,0.3,3.2,0.4,6.1,1.3c1.5,0.5,2.4,0.6,3,0.6c0.7,0,1.1-0.3,1.1-0.7c0-0.7-0.5-0.9-3.3-1.5c-6.6-1.4-9.2-3.6-9.2-8
	c0-3.1,2.3-5.4,5.5-5.4c1.4,0,2.6,0.4,4.5,1.5c1.8,1,2.2,1.2,2.6,1.2c0.5,0,0.7-0.3,0.7-1.1c0-0.5,0.2-0.7,0.5-0.7
	c0.3,0,0.7,0.3,1.1,0.8c0.6,0.7,0.8,1.3,0.8,2c0,1.3-0.7,2.1-2,2.5c-0.1,0.2-0.3,0.3-0.3,0.4c-0.7,0.8-1.4,1.1-2.6,1.1
	c-1,0-2.3-0.4-3.2-1l-1.7-1.2c-0.7-0.5-1.3-0.8-1.8-0.8c-0.7,0-1.2,0.4-1.2,1.2c0,0.7,0.5,1.3,1.3,1.5l1.6,0.5
	c0.6,0.2,0.8,0.3,1.5,0.6c0.4-0.1,0.6-0.1,0.8-0.1c1,0,2.1,0.3,3,0.8c0.3,0.2,0.5,0.3,0.6,0.3l0.9,0.3c2,0.6,3.7,2.8,3.7,5
	c0,2.5-1.6,4.1-4.3,4.1L-91.1,306.8z M-28.8,306.2c0.6,0.8,1.5,1.4,2.2,1.4c0.2,0,0.6-0.1,1-0.1c0.2-0.1,0.4-0.1,0.5-0.1
	c0.2,0,0.3,0.1,0.3,0.2c0,0.1-0.1,0.4-0.2,0.7c-0.1,0.3-0.2,0.5-0.2,0.6l-0.1,0.8l-0.4,0.6l-0.5,0.5l-0.1,0.1v0.3v0.2
	c0,0.9-0.3,1.4-1,1.8c-0.1,0-0.1,0.1-0.3,0.2l-0.1,0.3c-0.2,0.7-0.3,1.1-0.4,1.2c-0.1,0.2-0.3,0.5-0.7,1c-0.4,0.6-0.7,1-0.9,1.5
	c-0.1,0.4-0.3,0.4-0.5,0.4c-0.4,0-0.7-0.4-0.8-1C-31,317-31,317-31,317.1l-0.4,0.3l-0.7,0.5c-0.3,0.2-0.5,0.3-0.6,0.4l-0.4,0.4
	c-0.1,0.1-0.1,0.1-0.2,0.1c-0.2,0-0.4-0.3-0.5-0.9l-0.4-1.2c-0.1-0.3-0.1-0.7-0.1-1.1c0-0.6,0-0.8,0.3-1.3c-0.7,0.1-0.9,0.1-1.3,0.3
	c-0.1,0-0.3,0.1-0.3,0.1c-0.1,0-0.2-0.1-0.2-0.2c0-0.1,0.1-0.3,0.1-0.5l0.5-1.2c0.4-0.9,1.5-1.8,2.5-1.8c0.2,0,0.5,0.1,0.9,0.2
	c0.2,0.1,0.4,0.1,0.5,0.1c0.4,0,0.8-0.3,0.8-0.7c0-0.2-0.1-0.4-0.3-0.5c-0.1,0-0.5-0.2-1.3-0.4c-0.6-0.2-0.9-0.4-1.6-1.2
	c-0.5-0.6-0.7-0.7-0.9-0.7c-0.1,0-0.2,0.1-0.2,0.3l0,0.5l0,0.2c0,1-0.3,1.9-1,3.2l-1,1.8c-0.5,0.9-0.7,1.5-0.7,2.2
	c0,0.7,0.3,1.3,0.7,1.5l0.5,0.1c0.1,0,0.1,0.1,0.2,0.1c0.1,0.1,0.1,0.1,0.1,0.2c0,0.1-0.1,0.2-0.2,0.3c-0.1,0.1-0.3,0.3-0.6,0.8
	c-0.6,0.8-1,1.1-1.8,1.3c-0.4,1-1.1,1.7-2.4,2.1l-0.1,0.3c-0.4,0.8-1.4,1.4-2,1.4h-0.1c-0.1,0.6-0.6,1.3-1.3,1.8
	c-0.5,0.3-0.8,0.5-0.8,0.6c0,0.1-0.1,0.2-0.2,0.3c-0.2,0.4-0.3,0.5-0.5,0.5c-0.4,0-0.7-0.4-0.9-1c-0.1,0.1-0.3,0.2-0.3,0.2
	c-0.4,0.3-0.6,0.4-0.7,0.5c-0.2,0.1-0.6,0.2-1.3,0.4c-0.9,0.2-1.6,0.6-1.8,0.9l-0.3,0.5l-0.1,0.1c-0.2,0-0.4-0.2-0.5-0.6
	c-0.2-0.7-0.3-1.5-0.3-2c0-1.3,0.4-2.1,1.7-3.4v-0.3c0-2,1.5-3.3,3.7-3.3l0.4,0l1.2,0.1h0.1c0.7,0,1.3-0.3,1.9-0.8
	c0.9-0.7,1.1-1.1,1.1-1.9c0-0.3-0.1-0.5-0.3-1.4c-0.2-0.6-0.3-1.1-0.3-1.7c0-1.5,1.1-3.3,2.5-4.3c0.4-0.3,0.7-0.6,0.7-0.8
	c0-0.1,0-0.1-0.1-0.1c-0.1,0-0.3,0.1-0.4,0.3c-0.2,0.2-0.5,0.3-0.9,0.5l-0.6,0.2l-0.6,0.3c-0.2,0.1-0.3,0.2-0.3,0.3
	c0,0.1,0,0.2,0.1,0.3c0.1,0.1,0.1,0.2,0.1,0.3c0,0.1-0.1,0.2-0.2,0.4l-0.5,0.8c-0.5,0.8-0.8,1.1-1.5,1.4c-0.4,1.2-1,1.8-1.8,1.9
	c-0.7,1.3-1.3,1.8-2.5,2c-0.2,0.5-0.4,1-1.1,1.6c-0.3,0.3-0.4,0.5-0.5,0.6c-0.3,0.5-0.3,0.5-0.4,0.5c-0.2,0-0.5-0.2-0.8-0.5
	c-0.1-0.1-0.2-0.3-0.3-0.4l-0.3-0.6c-0.1-0.2-0.2-0.3-0.3-0.3l-0.2,0l-0.8,0.1c-0.5,0.1-1.2,0.5-1.4,0.8l-0.4,0.6
	c0,0.1-0.1,0.1-0.2,0.1c-0.3,0-0.5-0.7-0.5-1.9c0-1,0.2-1.7,0.5-2.2l1-1.4c0.1-0.2,0.2-0.4,0.2-0.5c0-0.2-0.1-0.3-0.2-0.4
	c-0.2-0.3-0.4-0.4-0.6-0.4l-0.8-0.1c-0.1,0-0.2-0.1-0.2-0.1c0-0.1,0-0.1,0.1-0.3c0.3-0.3,0.6-0.6,0.9-0.8c0.9-0.5,1.5-0.8,2.1-0.8
	c0.6,0,1.3,0.2,1.9,0.6l1,0.7c0.1,0.1,0.3,0.1,0.5,0.1c0.5,0,0.8-0.3,1.2-0.9c0.3-0.6,0.5-1.1,0.5-1.6c0-1.3-1-2.3-2.3-2.3
	c-0.6,0-1.3,0.3-1.9,0.7c-0.2,0.1-0.3,0.3-0.4,0.4l-0.3,0.6c-0.1,0.2-0.2,0.3-0.3,0.3c-0.2,0-0.6-0.5-0.9-1.2
	c-0.2-0.3-0.3-0.8-0.5-1.3c-0.2-0.7-0.3-1.2-0.3-1.8l0.1-1c-0.5-0.8-0.6-1.3-0.6-2.2c0-0.3,0.1-0.6,0.3-1.3
	c-0.3-0.5-0.4-0.9-0.4-1.6l0-0.4l0.1-0.5l0.1-0.4c-0.3-0.4-0.4-0.8-0.8-2.3c-0.2-0.9-0.3-1.3-0.5-1.5c-0.1-0.1-0.1-0.2-0.1-0.2
	c0-0.2,0.5-0.4,1.1-0.4l0.5,0c-0.1-0.3-0.1-0.4-0.1-0.7c0-0.4,0.1-0.9,0.3-1.4c0.2-0.5,0.2-0.7,0.2-0.9c0-0.4-0.1-0.8-0.2-1.1
	l-0.3-0.7c-0.1-0.2-0.1-0.3-0.1-0.4c0-0.1,0.1-0.1,0.2-0.1c0.7,0,2,0.8,3.1,1.7c1,1,1.4,1.8,1.4,3.2l-0.1,0.8c1,0.8,1.4,1.5,1.4,2.3
	c0,0.6-0.2,0.9-0.7,1.5c-1,1-1.2,1.5-1.2,2.7c0,1.9,0.6,2.9,1.6,2.9c0.9,0,1.6-1,1.8-2.5l0.1-1.3c0-0.3,0.1-0.8,0.2-1.3
	c0.1-0.3,0.1-0.8,0.1-0.9c0-0.5-0.3-1-1.3-2.1c-1-1.2-1.3-1.9-1.3-2.8c0-1.1,0.8-1.9,1.8-1.9c0.3,0,0.4,0,0.7,0.2
	c0-0.6,0-0.7,0.4-1.6c0.3-0.7,0.6-1.2,0.7-1.2c0.1,0,0.1,0.1,0.2,0.1c0.2,0.2,0.3,0.3,0.5,0.4c0.2,0.2,0.3,0.2,0.4,0.3
	c0.1,0.1,0.2,0.2,0.3,0.3c0.2-0.8,0.4-1.2,1.1-1.8c0.5-0.5,0.7-0.6,0.8-0.6c0.1,0,0.2,0.1,0.3,0.2l0.4,0.6l0.6,0.7
	c0.2,0.3,0.3,0.5,0.4,1.1l0.4-0.2l0.6-0.3c0.1-0.1,0.3-0.1,0.4-0.3c0.1-0.1,0.2-0.1,0.2-0.1c0.1,0,0.1,0.1,0.2,0.3l0.2,0.8l0.5,0.9
	c0.1,0.3,0.2,0.5,0.2,0.9v0.2l0.2,0c0.7,0,1.3,0.8,1.3,1.8c0,1.3-1,2.9-2.3,3.8c-0.1,0.4-0.1,0.6-0.1,1c0,2.8,0.8,3.4,5.1,4.1
	c1.1,0.2,2.1,0.4,2.9,0.6c0.1,0,1.1,0.3,2.8,0.9c1,0.3,1.6,0.5,2.1,0.5c0.5,0,0.8-0.1,0.8-0.4c0-0.5-0.7-0.9-2.9-1.8l-3.1-1.2
	c-3.2-1.2-4.7-3.1-4.7-6c0-3.3,2.5-5.8,5.8-5.8c1.3,0,2.5,0.3,4.2,0.9c2.3,0.8,2.4,0.9,2.6,0.9c0.4,0,0.7-0.3,0.7-0.9
	c0.1-0.5,0.2-0.8,0.5-0.8c0.4,0,0.9,0.4,1.3,1.1c0.3,0.6,0.5,1.3,0.5,1.8c0,1.2-0.6,1.9-1.8,2.2c-0.8,1-1.7,1.5-2.9,1.5
	c-1.4,0-2.1-0.3-4.6-1.8c-0.9-0.5-1.2-0.7-1.9-0.7c-0.9,0-1.5,0.5-1.5,1.2c0,0.6,0.5,1.1,1.7,1.4c0.7,0.2,0.8,0.2,1.2,0.6
	c0.3-0.1,0.4-0.1,0.6-0.1c1.2,0,2.6,0.6,3.8,1.7c2.2,0.7,4.2,3,4.2,5c0,2.2-1.9,4.2-4.1,4.2C-26.6,306.6-27.7,306.5-28.8,306.2z"/>
<path class="st2" d="M-88.2,255.3c-0.1-0.4-0.1-0.6-0.1-0.9l0-0.3l0.1-0.6l0-0.5c0-0.5-0.1-0.8-0.3-1.1l-0.4-0.6
	c-0.1-0.2-0.3-0.4-0.4-0.7c-0.1-0.1-0.1-0.2-0.1-0.3c0-0.2,0.1-0.3,0.3-0.3c0.1,0,0.1,0,0.5,0.2c0.1,0.1,0.3,0.1,0.4,0.1
	c0.2,0,0.3-0.3,0.3-1c0-0.7-0.1-1.1-0.2-1.2l-0.5-0.6l-0.5-0.4c-0.1-0.1-0.2-0.2-0.2-0.3c0-0.2,0.1-0.3,0.3-0.3
	c0.2,0,0.5,0.1,0.8,0.2l0.2,0c0.1,0,0.2-0.1,0.2-0.3v-0.1l-0.1-0.8l-0.2-0.8c-0.1-0.3-0.1-0.3-0.3-0.3h-0.1l-0.9,0.2l-0.1,0
	c-1.2,0-2.4-1-2.8-2.2l-0.7-2.3c-0.2-0.7-0.8-1.4-1.7-2.2c-0.3-0.2-0.5-0.4-0.7-0.4l-0.6-0.1c-0.1,0-0.2-0.1-0.2-0.2
	c0-0.1,0.1-0.2,0.4-0.2l1.2,0.1c0.4,0,1.1,0.2,1.9,0.5c1.1,0.4,1.8,0.5,2.4,0.5c1.8,0,2.9-1,2.9-2.6c0-1.1-0.6-2.3-1.5-3.1
	c-0.5-0.4-1-0.8-1.2-0.8c-0.1,0-0.2,0.1-0.2,0.2l0,0.5v0c0,0.2-0.1,0.3-0.3,0.3c-0.2,0-0.4-0.2-0.6-0.7c-0.7-1.4-1.8-2.2-2.9-2.2
	c-0.2,0-0.3,0.1-0.3,0.2c0,0.1,0.1,0.3,0.2,0.5l0.3,0.6c0.1,0.2,0.1,0.3,0.1,0.3s-0.1,0.1-0.1,0.1c-0.2,0-0.4-0.1-0.6-0.3l-0.5-0.6
	l-0.5-0.7c-0.4-0.6-0.7-0.8-1.5-1.2c-0.4-0.2-0.7-0.4-0.9-0.5c-0.2-0.1-0.3-0.1-0.4-0.1c-0.1,0-0.2,0.1-0.2,0.2
	c0,0.1,0.1,0.3,0.1,0.4c0.3,0.4,0.4,0.6,0.4,0.7s-0.1,0.2-0.2,0.2c-0.3,0-0.9-0.6-1.4-1.3c-0.4-0.6-0.6-1.3-0.6-2
	c0-1.5,1.1-2.7,2.6-2.7c0.8,0,1.8,0.3,2.7,0.9l1.7,1c0.6,0.4,1.5,0.6,2,0.6c0.2,0,0.7-0.1,1.1-0.2c0.2,0,0.3-0.1,0.4-0.2
	c0.1-0.1,0.2-0.1,0.2-0.2c0-0.1,0-0.1-0.1-0.2l-0.2-0.1l-0.8-0.1c-0.2,0-0.5-0.2-1-0.4c-1-0.4-1.5-0.7-1.8-0.9
	c-0.6-0.4-1-0.6-1.2-0.7c-0.3-0.1-0.5-0.2-0.5-0.3s0.1-0.2,0.2-0.2c0.1,0,0.2,0.1,0.4,0.1c0.5,0.3,1,0.5,1.3,0.5l1.5,0.5
	c0.8,0.3,1.9,0.5,2.4,0.5c0.6,0,1.2-0.5,1.2-1.2c0-0.4-0.3-1-0.6-1.6c-0.1-0.1-0.2-0.2-0.2-0.2c-0.1,0-0.2,0.1-0.2,0.3l0,0.3
	l0.1,0.4c0,0.5-0.3,0.8-0.7,0.8c-0.1,0-0.3,0-0.6-0.1l-2.3-0.8c-1.9-0.6-2.8-0.8-3.8-0.8c-2.8,0-4.9,1.9-4.9,4.4
	c0,2.8,2,4.6,6.9,6.3c4.9,1.7,5.5,2.1,5.5,3.3c0,0.7-0.7,1.3-1.5,1.3c-0.3,0-0.6,0-0.9-0.1c-0.2,0-1-0.2-2.4-0.6
	c-1.5-0.3-2.8-0.5-4.5-0.5c-3.5,0-5.5,0.6-7.1,2.2c-0.4,0.4-0.6,0.5-1,0.5l-0.2,0l-0.5,0h-0.1c-0.4,0-0.7,0.2-1,0.6
	c-0.4,0.6-0.6,0.9-0.6,1c-0.1,0.1-0.3,0.2-0.4,0.2c-0.3,0-0.5-0.2-0.9-1.1c-0.2-0.4-0.4-0.8-0.8-1.1l-0.7-0.6
	c-0.1-0.1-0.2-0.2-0.2-0.3c0-0.1,0.1-0.2,0.1-0.3c0.3-0.5,0.5-0.7,0.5-0.9c0.1-0.5,0.1-0.5,0.3-0.5c0.2,0,0.3,0.2,0.3,1
	c0,0.2,0.1,0.6,0.3,1l0.4,0.9c0.1,0.1,0.2,0.2,0.3,0.2c0.4,0,0.8-0.9,1-1.8c0.1-0.8,0.2-1,0.3-1c0.1,0,0.1,0,0.2,0.1
	c0,0.1,0.1,0.3,0.3,0.6c0.1,0.2,0.3,0.4,0.5,0.5c0.2,0.1,0.4,0.2,0.4,0.3h0c0.3,0,0.4-0.2,0.5-0.9l0-0.4l-0.1-0.5l-0.1-0.3
	c0-0.2,0.1-0.4,0.2-0.4c0.1,0,0.2,0.1,0.3,0.1l0.4,0.4c0.2,0.2,0.5,0.4,0.7,0.4c0.3,0,0.5-0.1,0.5-0.3c0-0.2-0.1-0.3-0.3-0.8
	l-0.3-0.5c-0.3-0.5-0.5-0.8-0.8-0.8l-0.4,0l-0.4,0.2c-0.1,0.1-0.2,0.1-0.3,0.1c-0.1,0-0.1-0.1-0.1-0.1c0-0.3,0.2-0.8,0.6-1.5
	c0.3-0.4,0.5-1.4,0.6-2.8c0.1-1.8,0.4-3,0.6-3c0.2,0,0.3,0.1,0.3,0.5l0,0.5l0,0.3c0,0.3,0.1,0.6,0.2,0.6c0.3,0,0.7-0.4,1-1.2
	c0.1-0.3,0.2-0.6,0.2-0.7l0-0.2l-0.7-1.3l-0.7-0.2c-0.1,0-0.2-0.1-0.3-0.2v-0.5V224l-0.1-0.4l-0.1-0.4l-0.2-0.4
	c-0.8,0.4-1.1,0.7-1.4,1.1c-0.3,0.4-0.4,0.5-0.6,0.5c-0.1,0-0.2-0.1-0.2-0.2c0-0.1,0-0.3,0.1-0.6l0-0.2c0-0.8-0.5-1.5-1.2-2
	l-0.2,0.3l-0.3,0.4l-0.4,0.5c-0.1,0.2-0.3,0.4-0.4,0.7c-0.1,0.1-0.1,0.3-0.1,0.4v0.1v0.1c0,0.3,0,0.4-0.2,0.4l-0.1,0l-0.3-0.4
	l-0.4-0.4l-0.6-0.4l-0.3-0.2c-0.1,0.1-0.1,0.3-0.1,0.3c-0.1,0.3-0.2,0.4-0.2,0.6l0,0.6l0,0.6v0.1c0,0.3-0.1,0.4-0.3,0.4
	c-0.1,0-0.3-0.1-0.4-0.2c-0.2-0.1-0.3-0.1-0.5-0.1c-0.6,0-0.9,0.4-0.9,1c0,0.7,0.2,1.4,0.6,1.9l0.5,0.6c0.1,0.2,0.4,0.3,0.4,0.2
	l0.1-0.8l-0.1-0.6l0-0.3c0-0.2,0.1-0.4,0.2-0.4c0.2,0,0.3,0.2,0.4,0.8l0.3,1.3l0.3,1.7c0.1,0.4,0.2,0.9,0.4,1.4
	c0.3,0.7,0.5,1.1,0.6,1.2c0.4,0.5,0.4,0.6,0.4,0.7c0,0.1-0.1,0.2-0.2,0.2c-0.1,0-0.2,0-0.3-0.1c-0.1-0.1-0.3-0.1-0.4-0.1l-0.3,0
	c-0.6,0-0.7,0.5-0.7,2.9c0,1.5,0.3,3.4,0.7,4.4l0.8,1.9c0.1,0.3,0.2,0.6,0.2,0.9c0,2.6-3.5,6.7-7.3,8.5c-1.4,0.7-1.9,1.4-2,2.9
	l0,0.5c0.6-0.3,0.8-0.4,1.2-0.5c1.1-0.3,1.3-0.4,1.4-0.9l0.1-0.5c0.1-0.2,0.1-0.2,1-0.7c0.3-0.1,0.5-0.3,0.6-0.5
	c0.2-0.3,0.3-0.4,0.4-0.4c0.1,0,0.1,0,0.1,0.1l0,0.1l-0.4,1l0,0.3c0,0.8,0.4,1.4,1.2,1.8c0.1-0.8,0.2-1.1,0.5-1.5l0.6-1
	c0.2-0.4,0.3-0.8,0.3-1.5c0-0.4,0-0.8-0.1-1.1l0-0.3c0-0.2,0.1-0.3,0.3-0.3c0.1,0,0.2,0,0.2,0.1l0.1,0.7c0,0.1,0.2,0.3,0.3,0.3
	c0.3,0,0.8-0.4,1.3-1.2c0.2-0.3,0.3-0.6,0.3-0.9l-0.1-0.5l-0.1-0.5l0-0.1c0-0.2,0.1-0.4,0.3-0.4c0.1,0,0.1,0,0.2,0.1l0.2,0.8
	c0.1,0.3,0.3,0.5,0.5,0.5c0.2,0,0.6-0.4,0.9-0.9c0.2-0.4,0.3-0.9,0.3-1.5c0-0.8,0.1-1,0.4-1c0.1,0,0.2,0,0.2,0.1l0.1,0.5
	c0.1,0.2,0.2,0.3,0.3,0.3c0.1,0,0.6-0.4,0.8-0.9c0.1-0.1,0.1-0.2,0.1-0.3c0-0.2-0.1-0.3-0.3-0.5c-0.4-0.3-0.4-0.4-0.4-0.8
	c0-0.4,0.1-0.7,0.4-1.2c0.2-0.3,0.3-0.6,0.5-0.9c0.4-0.9,0.6-1.1,0.8-1.1c0.1,0,0.3,0.1,0.3,0.3c0,0.1,0,0.2-0.1,0.3
	c-0.1,0.2-0.1,0.3-0.1,0.4c0,0.1,0.1,0.3,0.3,0.3c0.2,0,0.4-0.1,0.6-0.2c0.1-0.1,0.4-0.2,1-0.4l1.2-0.4c0.2-0.1,0.4-0.1,0.7-0.1
	c0.2,0,0.4,0,0.6,0.1c0.4,0.1,0.7,0.1,0.8,0.1c0.3,0,0.6-0.3,0.6-0.6c0-0.2-0.3-0.7-0.6-1.1c-0.1-0.1-0.2-0.3-0.2-0.3l0-0.1
	c0.1-0.1,0.1-0.1,0.2-0.1c0.2,0,0.8,0.6,1.3,1.4c3.1,4.8,4.2,6,6.3,6.6c2.1,0.6,2.7,1.1,2.7,2.4c0,0.7-0.3,1.5-1.1,2.5
	c-1.6,2.2-1.9,3-1.9,4.5v0.3c0.2-0.1,0.3-0.1,0.4-0.2c0.3-0.1,0.5-0.2,0.6-0.3l0.9-0.2c0.3-0.1,0.5-0.4,0.5-0.7v-0.1l-0.1-0.8v-0.1
	c0-0.3,0.1-0.6,0.3-0.8c0.1-0.1,0.1-0.1,0.2-0.1c0.1,0,0.2,0.1,0.3,0.2l0.6,1.2C-89.2,254.7-89,254.9-88.2,255.3z M-117.1,229.5
	c-0.3,0-0.4,0.2-0.4,0.7l-0.1,0.7c-0.1,0.6-0.1,0.7-0.1,0.9c0,0.5,0.1,0.9,0.4,0.9c0.2,0,0.6-0.4,0.8-0.9c0.1-0.3,0.2-0.6,0.2-0.8
	c0-0.2-0.1-0.5-0.2-0.8C-116.7,229.7-116.9,229.5-117.1,229.5z M-120.4,224v0.3c0,0.4-0.1,1-0.5,2.3c-0.1,0.3-0.1,0.5-0.1,0.6
	c0,0.2,0.1,0.5,0.3,0.8c0.1,0.2,0.2,0.3,0.3,0.4l0.4,0.2l0.1,0.5c0,0.2,0,0.5,0.1,0.8c0.1,0.4,0.1,0.7,0.1,1.1c0,0.3,0,0.4-0.1,0.4
	c-0.1,0-0.4-0.4-0.6-0.9c-0.3-0.9-0.6-1.2-1.1-1.2c-0.4,0-0.6,0.1-1.1,0.3c0.1,0.1,0.2,0.2,0.2,0.3c0,0,0.1,0.3,0.3,0.6l0.5,1
	c0.3,0.7,0.6,1,0.6,1.1c0.1,0.2,0.3,0.4,0.5,0.5c0.1,0,0.3,0.1,0.6,0.3c0.2,0.1,0.3,0.2,0.3,0.3c0,0.2-0.1,0.3-0.3,0.3h0l-0.5-0.1
	l-0.3,0c-0.1,0-0.2,0.1-0.2,0.4c0,1,0.8,2.1,2.1,3c0.2,0.1,0.3,0.3,0.3,0.4c0,0.1-0.1,0.2-0.3,0.2c-0.1,0-0.3-0.1-0.4-0.1
	c-0.1-0.1-0.2-0.1-0.3-0.1c-0.2,0-0.3,0.1-0.3,0.4c0,0.3,0.2,0.8,0.6,1.6c0.3,0.6,0.7,1,1.2,1.2l1.6,0.7c0.1,0,0.1,0.1,0.1,0.2
	c0,0.1-0.1,0.2-0.2,0.3l-0.3,0l-0.3,0l-0.5,0h-0.1c-0.2,0-0.3,0-0.3,0.2c0,0.2,0.2,0.6,0.5,1.2c0.4,0.6,0.7,1,0.9,1
	c0.1,0,0.2-0.1,0.2-0.2l0.4-0.8c0.1-0.1,0.4-0.4,0.9-0.7c0.3-0.2,0.7-0.3,1-0.4l0.6-0.1c0.2,0,0.3-0.1,0.3-0.3v-0.1l-0.1-0.7
	l-0.1-0.8l-0.1-0.7l-0.1-0.8c0-0.2-0.1-0.3-0.2-0.3c-0.1,0-0.2,0.1-0.3,0.3c-0.6,0.8-1,1.1-1.6,1.1c-1.9,0-3.4-3.3-3.4-7.7
	c0-0.4,0-0.9,0.1-1.5c0.1-1.1,0.1-1.4,0.1-1.8c0-1.9-0.4-3.3-1.2-4.1l-0.5-0.5L-120.4,224z M-115.8,249.9c-0.5-0.1-0.7-0.1-1-0.3
	c-0.1,0-0.3-0.1-0.7-0.3c-0.6-0.3-1-0.4-1.4-0.4c-0.5,0-1,0.2-1.5,0.6l0.3,0.3l0.7,0.5l0.7,0.5c0.2,0.1,0.4,0.2,0.6,0.2
	C-117.3,251.1-116.7,250.8-115.8,249.9z M-102,256.4c0.2-0.4,0.3-0.6,0.7-0.9c1-0.8,1.5-1.5,1.5-2v-0.4v-0.4c0-0.4,0.1-0.6,0.3-0.6
	c0.1,0,0.2,0,0.2,0.1l0.2,0.4c0,0.1,0.2,0.2,0.3,0.2s0.3-0.2,0.5-0.4l0.4-0.5c0.2-0.3,0.3-0.5,0.3-0.7c0-0.1,0-0.3-0.1-0.4
	c0-0.1-0.1-0.3-0.3-0.6c-0.1-0.2-0.1-0.4-0.1-0.6c0-0.2,0.1-0.4,0.3-0.4c0.1,0,0.2,0,0.3,0.1l0.3,0.4c0.1,0.1,0.2,0.1,0.3,0.1
	c0.1,0,0.3-0.1,0.4-0.3l0.3-0.6c0.1-0.1,0.1-0.3,0.1-0.3c0-0.1-0.1-0.2-0.3-0.3l-0.5-0.2c-0.6-0.3-1.1-1.3-1.1-2.3
	c0-0.1,0-0.3,0.1-0.4l0.3-0.6c0.1-0.2,0.1-0.4,0.1-0.6c0-0.4-0.1-0.7-0.4-1.1c-0.3-0.4-0.4-0.7-0.5-0.8c-0.2-0.6-0.3-0.7-0.5-0.7
	l-0.2,0l-0.3,0.1l-0.4,0.3l-0.5,0.6l-0.5,0.3c-0.3,0.1-0.6,0.8-0.6,1.3c0,0.9,0.1,1.2,1.3,3.3c0.5,0.8,0.7,1.5,0.7,2
	c0,1.5-1.3,2.5-3.9,3.1l-1.7,0.4c-1.2,0.3-1.9,1.1-2.2,2.5c0.5-0.3,0.7-0.3,1.6-0.3h0.5h0.1c0.5,0,0.5,0,0.8-0.5
	c0.4-0.5,0.7-0.8,1.2-1l0.6-0.3l0.5-0.3l0.1,0c0.1,0,0.2,0.1,0.2,0.1c0,0.1-0.1,0.4-0.3,0.6c-0.4,0.4-0.6,0.8-0.6,1.4
	C-102.4,255.8-102.3,256-102,256.4z M-106.5,250.9c0.4,0.3,0.8,0.6,1.1,1c0.3,0.5,0.4,0.5,0.7,0.5c0.1,0,0.3,0,0.5-0.1l0.3-0.1
	c0.6-0.1,0.8-0.2,0.8-0.3c0-0.1-0.1-0.2-0.2-0.3l-0.4-0.4l-0.4-0.4c-0.3-0.2-0.8-0.4-1.2-0.4C-105.6,250.4-105.9,250.5-106.5,250.9z
	 M-94.9,252.8l0.2,0l0.3,0l0.3,0l0.2,0c0.8,0,1.6-0.7,1.6-1.4c0-0.3-0.2-0.4-0.6-0.4C-93.9,251-94.5,251.6-94.9,252.8z M-21.4,255.3
	c-0.1-0.3-0.1-0.5-0.1-0.6l0-0.5c0.1-0.7,0.1-1,0.1-1.4c0-0.3-0.1-0.5-0.3-0.7l-0.4-0.6c-0.3-0.4-0.4-0.6-0.4-1
	c0-0.2,0.1-0.3,0.2-0.3l0.2,0c0,0,0.1,0.1,0.3,0.2c0.1,0.1,0.3,0.1,0.4,0.1c0.2,0,0.3-0.3,0.3-1c0-0.9-0.2-1.4-0.7-1.8l-0.5-0.4
	c-0.1-0.1-0.1-0.2-0.1-0.3c0-0.2,0.1-0.3,0.3-0.3c0.1,0,0.2,0,0.4,0.1l0.4,0.1l0.2,0c0.1,0,0.2-0.1,0.2-0.3l0-0.1l-0.1-0.8
	c-0.1-0.8-0.2-1.1-0.5-1.1h-0.1l-0.9,0.2l-0.2,0c-1.1,0-2.4-1.1-2.8-2.2l-0.7-2.3c-0.2-0.7-0.8-1.5-1.7-2.2
	c-0.3-0.2-0.6-0.4-0.8-0.4l-0.6-0.1c-0.1,0-0.2-0.1-0.2-0.2c0-0.1,0.1-0.2,0.4-0.2c0.9,0,1.9,0.2,3.2,0.6c1.2,0.4,1.8,0.5,2.4,0.5
	c1.8,0,2.9-0.9,2.9-2.5c0-0.8-0.3-1.7-0.7-2.3c-0.3-0.5-0.9-1.1-1.7-1.6c-0.1-0.1-0.2-0.1-0.3-0.1c-0.1,0-0.2,0.1-0.2,0.2l0,0.5v0
	c0,0.2-0.1,0.3-0.2,0.3c-0.2,0-0.4-0.2-0.6-0.7c-0.7-1.4-1.7-2.2-2.8-2.2c-0.2,0-0.4,0.1-0.4,0.2c0,0.1,0.1,0.3,0.2,0.5
	c0.1,0.2,0.2,0.4,0.3,0.6c0.1,0.1,0.1,0.2,0.1,0.3c0,0.1-0.1,0.1-0.2,0.1c-0.2,0-0.4-0.1-0.6-0.3c-0.4-0.4-0.5-0.6-0.5-0.6l-0.5-0.7
	c-0.4-0.6-0.8-0.9-1.4-1.2l-0.9-0.5c-0.2-0.1-0.3-0.1-0.5-0.1c-0.1,0-0.2,0.1-0.2,0.2c0,0.1,0.1,0.3,0.2,0.4
	c0.2,0.3,0.3,0.6,0.3,0.7c0,0.1-0.1,0.2-0.2,0.2c-0.3,0-0.7-0.4-1.3-1.3c-0.4-0.6-0.7-1.3-0.7-2c0-1.5,1.2-2.7,2.7-2.7
	c0.8,0,1.7,0.3,2.7,0.9l1.7,1c0.6,0.4,1.5,0.6,2,0.6c0.3,0,0.4,0,1-0.2c0.2-0.1,0.3-0.1,0.5-0.2c0.1-0.1,0.1-0.1,0.1-0.2
	c0-0.1-0.1-0.2-0.3-0.2c-0.8-0.1-2.5-0.7-3.5-1.4c-0.6-0.4-1-0.6-1.2-0.7c-0.3-0.1-0.5-0.3-0.5-0.4c0-0.1,0.1-0.1,0.2-0.1l0.2,0
	l1.6,0.6l1.5,0.5c0.7,0.3,1.9,0.5,2.4,0.5c0.7,0,1.1-0.5,1.1-1.1c0-0.3-0.1-0.7-0.2-1c-0.2-0.4-0.5-0.8-0.6-0.8
	c-0.1,0-0.2,0.1-0.2,0.4l0,0.2l0.1,0.4c0,0.5-0.3,0.8-0.7,0.8c-0.2,0-0.4,0-0.6-0.1l-2.3-0.8c-2-0.6-2.8-0.8-3.8-0.8
	c-2.8,0-4.9,1.9-4.9,4.4c0,2.8,2,4.6,7,6.3c4.9,1.7,5.5,2.1,5.5,3.3c0,0.7-0.7,1.3-1.6,1.3c-0.3,0-0.6,0-0.8-0.1
	c-0.2,0-1-0.2-2.4-0.6c-1.5-0.4-2.8-0.5-4.5-0.5c-3.6,0-5.3,0.5-7.1,2.2c-0.4,0.4-0.6,0.5-1.1,0.5l-0.3,0l-0.6,0
	c-0.4,0-0.8,0.2-1,0.6l-0.6,1c-0.1,0.1-0.2,0.2-0.4,0.2c-0.4,0-0.6-0.3-0.9-1.1c-0.2-0.4-0.4-0.8-0.7-1.1l-0.8-0.6
	c-0.1-0.1-0.2-0.2-0.2-0.3c0-0.1,0.1-0.2,0.2-0.3c0.1-0.1,0.2-0.3,0.3-0.5c0.1-0.2,0.2-0.3,0.2-0.4l0-0.3c0-0.1,0.1-0.2,0.3-0.2
	c0.2,0,0.3,0.2,0.3,1c0,0.2,0.1,0.6,0.3,1l0.4,0.9c0.1,0.1,0.2,0.2,0.3,0.2c0.4,0,0.8-0.9,1-1.8c0.1-0.8,0.2-1,0.3-1
	c0.1,0,0.2,0.1,0.5,0.7c0.1,0.2,0.2,0.4,0.4,0.5c0.2,0.1,0.3,0.2,0.4,0.3h0c0.3,0,0.4-0.2,0.5-0.9l0-0.4l-0.1-0.5l-0.1-0.3
	c0-0.2,0.1-0.4,0.2-0.4c0.1,0,0.2,0.1,0.3,0.1l0.4,0.4c0.2,0.2,0.5,0.4,0.7,0.4c0.3,0,0.5-0.1,0.5-0.4c0-0.2,0-0.3-0.4-0.8
	c0-0.1-0.1-0.2-0.3-0.5c-0.3-0.6-0.5-0.8-0.8-0.8l-0.4,0l-0.5,0.2c-0.1,0.1-0.2,0.1-0.3,0.1c-0.1,0-0.1-0.1-0.1-0.1
	c0-0.3,0.2-0.8,0.6-1.5c0.3-0.4,0.4-1.3,0.6-2.8l0.2-1.7c0.1-1,0.2-1.4,0.4-1.4c0.1,0,0.1,0,0.1,0.1l0.1,0.5v0.4
	c0,0.5,0.1,0.9,0.1,0.9c0.2,0,0.4-0.2,0.6-0.5c0.2-0.2,0.3-0.4,0.4-0.7c0.1-0.4,0.2-0.7,0.2-0.9c0-0.8-0.3-1.2-1.5-1.5
	c-0.1,0-0.2-0.1-0.2-0.1l0-0.3v-0.6l-0.1-0.4l-0.1-0.4l-0.2-0.4l-0.3,0.2c-0.7,0.4-0.9,0.6-1.1,0.9c-0.3,0.4-0.4,0.5-0.6,0.5
	c-0.1,0-0.2-0.1-0.2-0.1l0.1-0.6l0-0.1c0-0.8-0.4-1.5-1.2-2.1l-0.3,0.3l-0.3,0.4l-0.4,0.5c-0.3,0.3-0.4,0.7-0.4,1.1v0.1v0.1
	c0,0.3,0,0.4-0.2,0.4l-0.1,0l-0.3-0.4l-0.4-0.4l-0.6-0.4l-0.3-0.1c-0.3,0.8-0.4,0.8-0.4,1.8v0.3c0,0.3-0.1,0.5-0.3,0.5
	c-0.1,0-0.2-0.1-0.4-0.2c-0.2-0.1-0.4-0.1-0.5-0.1c-0.5,0-0.9,0.4-0.9,1c0,0.6,0.1,1.1,0.6,1.8c0.3,0.5,0.6,0.8,0.8,0.8
	c0,0,0.1-0.3,0.1-0.8l-0.1-0.6l0-0.3c0-0.2,0.1-0.4,0.2-0.4c0.2,0,0.3,0.2,0.4,0.8l0.3,1.3l0.3,1.7c0.1,0.4,0.2,0.9,0.4,1.4
	c0.3,0.7,0.5,1.1,0.6,1.2c0.4,0.5,0.4,0.6,0.4,0.7c0,0.1-0.1,0.2-0.2,0.2c-0.1,0-0.2,0-0.3-0.1c-0.1-0.1-0.3-0.1-0.4-0.1l-0.3,0
	c-0.6,0-0.7,0.5-0.7,2.8c0,1.5,0.3,3.4,0.7,4.4l0.8,1.9c0.1,0.3,0.2,0.6,0.2,0.9c0,2.6-3.5,6.7-7.3,8.5c-1.5,0.7-1.9,1.4-2,3.4
	c0.6-0.3,0.9-0.4,1.3-0.5c1.1-0.3,1.3-0.4,1.4-0.9l0.1-0.5c0.1-0.2,0.2-0.3,0.9-0.7c0.3-0.1,0.5-0.3,0.6-0.5
	c0.2-0.3,0.3-0.4,0.4-0.4c0.1,0,0.2,0.1,0.2,0.2l0,0.1l-0.4,1l0,0.3c0,0.7,0.4,1.4,1.2,1.8c0.1-0.2,0.1-0.3,0.1-0.4
	c0.1-0.5,0.3-0.9,0.4-1.1l0.7-1c0.3-0.4,0.3-0.6,0.3-1.5l0-1.1l0-0.3c0-0.2,0.1-0.3,0.3-0.3c0.1,0,0.2,0.1,0.2,0.1l0.1,0.7
	c0,0.1,0.2,0.3,0.4,0.3c0.3,0,0.8-0.4,1.3-1.2c0.2-0.3,0.3-0.6,0.3-0.8c0-0.2-0.1-0.7-0.1-1.1l0-0.2c0-0.2,0.1-0.3,0.3-0.3
	c0.1,0,0.2,0,0.2,0.1l0.3,0.8c0.1,0.3,0.3,0.5,0.5,0.5c0.6,0,1.1-1.1,1.2-2.3c0-0.8,0.1-1,0.4-1c0.1,0,0.2,0,0.2,0.1l0.1,0.5
	c0.1,0.2,0.2,0.3,0.3,0.3c0.1,0,0.3-0.2,0.5-0.4c0.1-0.1,0.2-0.3,0.3-0.5c0.1-0.1,0.1-0.3,0.1-0.4c0-0.2,0-0.2-0.3-0.4
	c-0.3-0.2-0.4-0.4-0.4-0.8c0-0.5,0.2-1.1,0.9-2.2c0.6-1,0.7-1.1,0.8-1.1c0.1,0,0.2,0.1,0.2,0.3c0,0.1,0,0.2-0.1,0.3
	c-0.1,0.2-0.1,0.3-0.1,0.4c0,0.1,0.1,0.3,0.3,0.3c0.2,0,0.4-0.1,0.6-0.2c0.2-0.1,0.5-0.2,1-0.4c0.7-0.2,1.1-0.4,1.2-0.4
	c0.2-0.1,0.5-0.1,0.7-0.1c0.2,0,0.4,0,0.6,0.1c0.4,0.1,0.7,0.1,0.8,0.1c0.3,0,0.6-0.3,0.6-0.6c0-0.1-0.1-0.4-0.2-0.6
	c-0.2-0.3-0.3-0.5-0.3-0.5c-0.2-0.2-0.2-0.3-0.2-0.3l0-0.1c0-0.1,0.1-0.1,0.2-0.1c0.3,0,0.8,0.6,1.3,1.4c2.8,4.5,4.2,6,6.2,6.6
	c2.2,0.6,2.7,1.1,2.7,2.4c0,0.7-0.4,1.5-1.1,2.5c-1.4,2-1.9,3.1-1.9,4.4v0.3c0.2-0.1,0.3-0.1,0.4-0.2c0.3-0.1,0.5-0.2,0.6-0.3
	l0.9-0.2c0.3-0.1,0.5-0.4,0.5-0.8v-0.1l-0.1-0.8v-0.1c0-0.4,0.2-0.8,0.5-0.8c0.1,0,0.2,0.1,0.3,0.2l0.6,1.2
	C-22.4,254.7-22.2,254.9-21.4,255.3z M-50.8,230.9l0,0.6l0,0.3c0,0.6,0.1,0.8,0.3,0.8c0.2,0,0.6-0.4,0.8-0.9c0.1-0.3,0.2-0.7,0.2-1
	c0-0.2,0-0.3-0.2-0.7c-0.2-0.4-0.3-0.6-0.5-0.6C-50.6,229.5-50.7,229.9-50.8,230.9z M-53.6,224v0.3c0,0.3-0.1,0.9-0.3,1.5
	c-0.1,0.5-0.2,0.8-0.2,0.8c-0.1,0.2-0.1,0.4-0.1,0.6c0,0.5,0.3,1,0.6,1.2l0.4,0.2l0.1,0.5c0,0.2,0,0.5,0.1,0.8
	c0.1,0.4,0.1,0.7,0.1,1.1c0,0.3,0,0.4-0.1,0.4c-0.1,0-0.4-0.4-0.6-0.9c-0.3-0.9-0.6-1.2-1.1-1.2c-0.4,0-0.6,0.1-1.1,0.3
	c0.4,0.5,0.6,0.9,1,1.8c0.6,1.3,0.8,1.5,1.7,2c0.2,0.1,0.3,0.2,0.3,0.3c0,0.2-0.1,0.3-0.3,0.3c-0.1,0-0.3,0-0.5-0.1l-0.3,0
	c-0.1,0-0.2,0.1-0.2,0.4c0,0.9,0.8,2.1,2.2,3c0.2,0.1,0.3,0.3,0.3,0.4c0,0.1,0,0.1-0.1,0.2c-0.1,0.1-0.1,0.1-0.2,0.1
	s-0.2-0.1-0.4-0.1c-0.1-0.1-0.2-0.1-0.3-0.1c-0.2,0-0.3,0.2-0.3,0.4c0,0.3,0.2,0.9,0.6,1.5c0.4,0.6,0.8,1,1.2,1.2l1.6,0.7
	c0.1,0,0.1,0.1,0.1,0.2c0,0.1-0.1,0.2-0.2,0.3l-0.3,0l-0.3,0l-0.4,0h-0.1c-0.2,0-0.3,0-0.3,0.2c0,0.2,0.2,0.5,0.5,1.2
	c0.4,0.7,0.7,1,0.9,1c0.1,0,0.2-0.1,0.2-0.2l0.4-0.8c0.1-0.1,0.4-0.4,0.9-0.7c0.3-0.2,0.7-0.3,1-0.4c0.9-0.1,0.9-0.2,0.9-0.5
	c0-0.1,0-0.4-0.1-0.7c0-0.2-0.1-0.4-0.1-0.8l-0.1-0.7l-0.1-0.8c0-0.2-0.1-0.3-0.2-0.3c-0.1,0-0.2,0.1-0.3,0.3
	c-0.4,0.7-1,1.1-1.5,1.1c-2,0-3.4-3.2-3.4-7.8l0-1.4l0.1-1.7l0-0.6c0-1.4-0.5-2.9-1.2-3.6l-0.5-0.5L-53.6,224z M-48.9,249.9
	c-0.8-0.1-0.9-0.2-1.7-0.5c-0.6-0.3-1-0.4-1.3-0.4c-0.6,0-1,0.2-1.5,0.6l0.3,0.3l0.7,0.5l0.7,0.5c0.2,0.1,0.4,0.2,0.6,0.2
	C-50.5,251.1-49.9,250.8-48.9,249.9z M-35.2,256.4c0.2-0.4,0.3-0.6,0.7-0.9c1-0.8,1.5-1.5,1.5-2v-0.4v-0.4c0-0.4,0.1-0.6,0.3-0.6
	c0.1,0,0.2,0,0.2,0.1l0.2,0.4c0,0.1,0.2,0.2,0.3,0.2c0.3,0,0.4-0.2,0.9-0.9c0.2-0.3,0.3-0.5,0.3-0.7c0-0.1,0-0.3-0.1-0.4
	c0-0.1-0.1-0.3-0.3-0.6c-0.1-0.2-0.1-0.4-0.1-0.6c0-0.2,0.1-0.4,0.3-0.4c0.1,0,0.2,0,0.3,0.1l0.3,0.4c0.1,0.1,0.1,0.1,0.2,0.1
	c0.1,0,0.4-0.1,0.4-0.3l0.3-0.6c0.1-0.1,0.1-0.3,0.1-0.3c0-0.1-0.1-0.3-0.3-0.3l-0.5-0.2c-0.6-0.3-1.1-1.3-1.1-2.2
	c0-0.1,0-0.3,0.1-0.5l0.2-0.6c0.1-0.2,0.1-0.4,0.1-0.6c0-0.3-0.1-0.7-0.4-1.1c-0.3-0.4-0.4-0.6-0.4-0.8c-0.2-0.5-0.3-0.7-0.5-0.7
	c-0.1,0-0.3,0-0.5,0.2l-0.4,0.2l-0.5,0.6l-0.5,0.3c-0.3,0.1-0.6,0.8-0.6,1.3c0,0.8,0.2,1.2,1.3,3.2c0.5,0.9,0.7,1.5,0.7,2
	c0,1.5-1.5,2.6-3.9,3.1c-2.9,0.6-3.5,1.1-3.9,2.9c0.5-0.3,0.7-0.3,1.6-0.3h0.5h0.1c0.5,0,0.5,0,0.8-0.5c0.4-0.5,0.7-0.8,1.2-1
	l0.6-0.3l0.5-0.3l0.1,0c0.1,0,0.2,0.1,0.2,0.1c0,0.1-0.1,0.3-0.3,0.6c-0.3,0.4-0.5,0.8-0.5,1.2C-35.5,255.7-35.4,256-35.2,256.4z
	 M-39.7,250.9c0.4,0.3,0.8,0.6,1.1,1c0.3,0.5,0.4,0.5,0.7,0.5c0.1,0,0.3,0,0.5-0.1l0.3-0.1c0.6-0.1,0.8-0.2,0.8-0.4
	c0-0.1-0.1-0.2-0.1-0.3l-0.4-0.4l-0.4-0.4c-0.3-0.2-0.7-0.4-1.1-0.4C-38.8,250.5-39.1,250.6-39.7,250.9z M-28.1,252.8l0.2,0l0.4,0
	l0.3,0l0.2,0c0.4,0,0.6,0,0.7-0.2c0.2-0.2,0.4-0.4,0.7-0.8c0.1-0.2,0.1-0.3,0.1-0.4c0-0.2-0.2-0.4-0.6-0.4
	C-27.1,251-27.7,251.6-28.1,252.8z M-91.7,327.8l0.2-0.4l0.5-0.5c0.4-0.4,0.6-1.1,0.6-1.8c0-0.4-0.1-0.8-0.2-1.1
	c-0.1-0.3-0.1-0.5-0.1-0.6c0-0.2,0.2-0.4,0.3-0.4c0.1,0,0.2,0.1,0.3,0.2l0.5,0.6c0.3,0.4,0.4,0.4,0.9,0.5l0-0.5l0-0.6
	c0-0.8-0.3-1.8-0.8-2.4c-0.3-0.4-0.4-0.6-0.4-0.7c0-0.1,0.1-0.3,0.2-0.3c0,0,0.1,0,0.1,0.1c0.3,0.3,0.5,0.4,0.6,0.4
	c0.2,0,0.3-0.4,0.3-0.9c0-0.7-0.3-1.5-0.7-2c-0.2-0.3-0.4-0.4-0.4-0.5c-0.1-0.1-0.1-0.1-0.1-0.2c0-0.2,0.1-0.3,0.3-0.3
	c0.1,0,0.2,0,0.4,0.2c0.1,0.1,0.2,0.1,0.3,0.1c0.3,0,0.4-0.4,0.4-1.5l0-0.4l0-0.6c0-0.8-0.1-0.9-0.4-0.9h-0.3c-1.7,0-2.6-1.1-3-4.1
	c-0.3-2.1-1.1-3.6-2.1-4c-0.6-0.2-0.8-0.3-0.8-0.5c0-0.1,0.2-0.2,0.3-0.2c0.1,0,0.4,0.1,0.7,0.2c1.4,0.6,2.6,0.9,3.7,0.9
	c1.7,0,3.1-1.3,3.1-2.8c0-1.2-0.6-2.4-1.6-3.4c-0.3-0.3-0.6-0.4-0.9-0.5h-0.1l-0.2,0.1l0.1,0.5l0.1,0.4l0,0.1c0,0.1-0.1,0.1-0.2,0.1
	c-0.1,0-0.2-0.1-0.3-0.1l-0.6-1c-0.5-0.8-1.6-1.4-2.5-1.4c-0.3,0-0.5,0.1-0.5,0.3c0,0.1,0.1,0.3,0.2,0.4c0.2,0.2,0.3,0.4,0.3,0.6
	l0,0.1c0,0.1-0.1,0.1-0.1,0.1h0c-0.2,0-0.3-0.1-1-1c-0.6-0.7-1.9-1.4-2.6-1.4c-0.1,0-0.2,0-0.3,0.1c-0.1,0.1-0.1,0.1-0.1,0.1
	c0,0.1,0.1,0.3,0.3,0.4c0.2,0.2,0.4,0.4,0.4,0.5c0,0.1-0.1,0.1-0.2,0.1c-0.2,0-0.7-0.3-1.5-1c-1.3-1-1.9-2-1.9-3.2
	c0-1.4,1-2.5,2.3-2.5c0.7,0,1.7,0.4,2.4,0.9l1.8,1.3c0.8,0.6,1.8,0.9,2.8,0.9c0.2,0,0.4-0.1,0.6-0.1c0.2-0.1,0.3-0.2,0.3-0.2
	c0,0-0.1-0.1-0.3-0.1c-0.6-0.1-1.1-0.4-1.5-0.6l-1.8-1.3c-0.7-0.5-1.1-0.8-1.4-1c-1-0.5-1.1-0.6-1.1-0.7c0-0.1,0.1-0.1,0.2-0.1
	c0.1,0,0.2,0,0.3,0.1l0.9,0.4c0.3,0.1,0.8,0.4,1.5,0.9c1.9,1.3,2.9,1.7,4,1.7c1.1,0,1.9-0.8,1.9-1.8c0-0.2-0.1-0.4-0.1-0.6l-0.2-0.4
	c-0.1-0.1-0.2-0.2-0.2-0.2l-0.1,0.1l-0.1,0.8c0,0,0,0.1-0.1,0.3c-0.1,0.1-0.2,0.3-0.3,0.4c-0.2,0.2-0.4,0.3-0.7,0.3
	c-0.6,0-1.2-0.3-2.9-1.3c-1.7-1.1-3.2-1.6-4.4-1.6c-2.6,0-4.6,2.1-4.6,4.6c0,3.6,2.2,5.2,9.1,6.7c2.6,0.6,3.8,1.3,3.8,2.5
	c0,1.1-0.9,1.7-2.2,1.7c-0.4,0-0.7,0-1-0.1c-0.2-0.1-1.5-0.4-3.7-1c-1.5-0.4-3.3-0.7-4.8-0.7c-2.7,0-4.5,0.8-5.7,2.5
	c-0.1,0.2-0.3,0.3-0.4,0.3c-0.1,0-0.2-0.1-0.3-0.1l-0.5-0.4c-0.4-0.3-0.9-0.5-1.3-0.5c-0.3,0-0.5,0.1-0.8,0.3
	c-0.2,0.2-0.3,0.3-0.4,0.3c-0.2,0-0.6-0.4-0.8-1c-0.4-0.8-0.6-1.7-0.6-2.4c0-0.4,0.1-0.6,0.3-0.6c0.1,0,0.2,0.1,0.3,0.3l0.3,1
	c0.2,0.6,0.5,1,0.7,1c0.1,0,0.3-0.2,0.5-0.4c0.1-0.2,0.2-0.3,0.3-0.5c0.2-0.6,0.3-0.8,0.4-0.8c0.2,0,0.3,0.1,0.5,0.8
	c0,0.1,0.1,0.3,0.2,0.6c0.1,0.3,0.3,0.5,0.4,0.6c0.1,0.1,0.2,0.2,0.4,0.2c0.3,0,0.6-0.5,0.6-1.1v-0.2l0-0.7c0-0.3,0-0.3,0.2-0.3
	c0.1,0,0.1,0,0.3,0.2c0.2,0.2,0.4,0.4,0.6,0.5c0.2,0.1,0.4,0.2,0.5,0.2c0.1,0,0.2-0.1,0.3-0.2c0.1-0.1,0.1-0.2,0.1-0.3
	c0-0.1-0.1-0.3-0.5-0.6c-0.2-0.2-0.4-0.7-0.7-1.4c-0.1-0.3-0.2-0.5-0.3-0.5c0,0-0.1,0-0.2,0.1l-0.5,0.2l-0.3,0.1l-0.1,0
	c-0.2,0-0.3-0.1-0.3-0.3s0.3-0.5,0.7-0.8c0.3-0.2,0.4-0.6,0.5-1c0-0.6,0.1-1.1,0.3-1.1l0.1-1.2c0.1-0.6,0.3-1.8,0.5-2.5
	c0-0.1,0.1-0.2,0.1-0.2c0.1,0,0.2,0.3,0.2,0.6l0,0.2l0,0.4c0,0.4,0.1,0.7,0.2,0.7c0.2,0,0.3-0.2,0.5-0.6l0.3-0.8
	c0.1-0.2,0.1-0.5,0.1-0.7c0-0.7-0.4-1.2-1-1.2l-0.3,0c-0.1,0.1-0.2,0.1-0.3,0.1c-0.2,0-0.3-0.2-0.3-0.4l0-0.5l0-0.7l-0.1-0.8l0-0.4
	l-0.3,0.2l-0.4,0.3l-0.6,0.5l-0.5,0.4c-0.1,0.1-0.2,0.1-0.3,0.1c-0.3,0-0.3-0.1-0.3-0.6v-0.1c0-0.4-0.2-0.8-0.9-1.7
	c0-0.1-0.1-0.1-0.2-0.2l-0.1,0.3l-0.4,0.6l-0.4,1l-0.1,0.6c0,0.2-0.1,0.3-0.2,0.3c-0.1,0-0.2-0.1-0.3-0.3c-0.6-0.6-0.7-0.7-1.5-1
	l-0.1,0.3c-0.1,0.4-0.2,0.7-0.2,0.8l0,0.7v0.3v0.2c0,0.2-0.1,0.3-0.2,0.3h0c0,0-0.1-0.1-0.2-0.2c-0.1-0.1-0.2-0.1-0.4-0.1
	c-0.7,0-1.1,0.4-1.1,0.9c0,0.4,0.1,0.7,0.8,1.7c0.3,0.4,0.6,0.8,0.8,0.8c0.1,0,0.2-0.2,0.2-0.5l-0.1-0.4c-0.1-0.2-0.1-0.4-0.1-0.5
	c0-0.2,0.1-0.3,0.2-0.3c0.3,0,0.7,0.9,0.8,2.2l0.1,1.3c0.1,0.5,0.2,1,0.4,1.4c0.3,0.7,0.6,1.1,0.9,1.3c0.3,0.2,0.6,0.5,0.6,0.6
	c0,0.1-0.1,0.2-0.2,0.2c0,0-0.3-0.1-0.7-0.3l-0.3-0.1c-0.7,0-1,0.4-1,1.6c0,1.5,1,3.6,2.1,4.5l1.7,1.3c0.8,0.7,1.5,1.8,1.5,2.6
	c0,1-1.1,2.1-3.1,2.8l-1.2,0.4c-0.9,0.3-1.3,0.9-1.7,2.6c0.5-0.1,0.7-0.2,1-0.2h0.2l0.5,0c0.5,0,0.8-0.3,0.8-0.7v-0.3
	c0-0.1,0.1-0.2,0.3-0.3c0.3-0.2,0.5-0.2,0.5-0.3l0.4-0.3c0.1-0.1,0.1-0.1,0.2-0.1c0.1,0,0.2,0.1,0.2,0.2c0,0.1,0,0.2-0.1,0.3
	c-0.1,0.3-0.2,0.7-0.2,1.2c0,0.9,0.1,1.3,0.6,2c0-0.2,0.1-0.4,0.1-0.5c0.1-0.2,0.3-0.5,0.6-1c0.5-0.8,0.9-1.7,0.9-2.2l0-0.1
	l-0.1-0.8c0-0.1,0.1-0.3,0.2-0.4c0.1-0.1,0.2-0.1,0.3-0.1c0.1,0,0.3,0.1,0.4,0.4c0.1,0.2,0.2,0.3,0.3,0.3c0.1,0,0.4-0.3,0.5-0.7
	c0.1-0.3,0.2-0.5,0.2-0.8c0-0.1,0-0.3-0.1-0.5c-0.1-0.2-0.1-0.3-0.1-0.4c0-0.1,0-0.1,0.1-0.2c0.1-0.1,0.1-0.1,0.2-0.1
	c0.1,0,0.1,0,0.2,0.1l0.3,0.2c0.1,0.1,0.2,0.1,0.3,0.1c0.1,0,0.3-0.2,0.5-0.4c0.3-0.5,0.5-0.9,0.5-1c0-0.1-0.1-0.2-0.3-0.3
	c-0.7-0.5-1.2-1.3-1.2-1.9c0-0.1,0-0.3,0.1-0.5l0.4-1c0.2-0.5,0.3-0.7,0.3-0.8l0.1,0c0.1,0,0.2,0.1,0.2,0.3c0,0.1,0,0.3-0.1,0.4
	c-0.1,0.2-0.1,0.5-0.1,0.7c0,0.3,0.1,0.4,0.4,0.4c0.2,0,0.4-0.1,0.6-0.1c1.1-0.5,1.9-0.7,2.5-0.7c0.5,0,0.8,0.1,1.3,0.5
	c0.1,0.1,0.3,0.1,0.3,0.1c0.1,0,0.1-0.1,0.2-0.1c0.1-0.1,0.1-0.1,0.1-0.2c0-0.1-0.1-0.3-0.2-0.5c-0.2-0.2-0.3-0.4-0.3-0.5
	c0-0.1,0.1-0.2,0.2-0.2c0.6,0,1.4,1.8,2.3,4.6c0.7,2.2,0.8,2.4,3,3.6c1.8,1,2.5,2,2.5,3.6c0,1.6-0.4,3.6-1.4,6.3
	c-0.3,0.8-0.4,1.4-0.4,1.9c0,0.4,0.1,0.7,0.4,1.7c0.1,0.4,0.2,0.7,0.3,0.8C-91.9,327.4-91.8,327.6-91.7,327.8z M-100,322.9
	c0.2-0.5,0.3-0.6,0.7-1.2c0.6-0.9,0.8-1.3,0.8-1.7v-0.6c0-0.5,0.1-0.8,0.3-0.8c0.1,0,0.1,0,0.2,0.1l0.2,0.3c0.1,0.1,0.2,0.1,0.3,0.1
	c0.1,0,0.3-0.1,0.4-0.3c0.3-0.4,0.4-0.9,0.4-1.3l0-0.4l0-0.4c0-0.2,0.1-0.3,0.3-0.3c0.1,0,0.2,0.1,0.3,0.3c0.1,0.2,0.2,0.3,0.3,0.3
	s0.2-0.1,0.3-0.2l0.3-0.4l0.2-0.3l0.1-0.2c0-0.1-0.1-0.2-0.3-0.3c-0.7-0.5-1-1.2-1-2.5c0-1-0.1-1.7-0.2-2c0-0.1-0.2-0.6-0.6-1.5
	c-0.2-0.4-0.3-0.8-0.4-1.3c-0.1-0.3-0.2-0.4-0.4-0.4c-1,0-1.7,0.8-1.7,1.9c0,0.6,0.3,1.7,0.8,2.9c0.7,1.7,0.9,2.3,0.9,2.9
	c0,1.3-0.5,1.9-2.3,2.5c-2,0.7-3,1.8-3.4,3.7c0.2-0.1,0.3-0.1,0.4-0.1c0.2-0.1,0.4-0.2,0.5-0.2l0.6-0.1c0.5-0.1,0.9-0.4,1-0.7
	l0.1-0.5c0-0.1,0.1-0.2,0.2-0.3l0.3-0.1l0.3-0.1l0.1,0.1l-0.1,0.5c-0.1,0.1-0.1,0.4-0.1,0.8C-100.6,321.9-100.5,322.3-100,322.9z
	 M-119.2,290c0.1,0.2,0.1,0.3,0.1,0.4c0,0.1-0.1,0.4-0.1,0.9l-0.1,0.7c0,0.6,0.1,1.3,0.3,1.9c0.2,0.5,0.2,0.7,0.2,0.8l0,0.1
	c0,0.1-0.1,0.3-0.1,0.3c-0.1,0-0.2-0.1-0.4-0.2c-0.4-0.4-0.9-0.5-1.3-0.5c-0.1,0-0.4,0-0.6,0.1l0.2,0.4l0.5,1.3l0.8,1.1l0.8,0.5
	c0.1,0.1,0.1,0.1,0.2,0.2c0.1,0.1,0.1,0.2,0.1,0.2c0,0.1-0.1,0.1-0.1,0.1l-0.7,0c-0.1,0-0.2,0.1-0.2,0.1c0,0.1,0.1,0.5,0.3,1.1
	l0.4,1l0.6,0.6l0.6,0.5c0.2,0.1,0.3,0.3,0.3,0.4c0,0.1-0.1,0.2-0.1,0.2l-0.4,0c-0.1,0-0.2,0.1-0.2,0.3c0,0.3,0.3,0.8,0.7,1.4
	c0.6,0.8,1,1,1.6,1h0.5c0.3,0,0.4,0.1,0.4,0.3c0,0.2-0.1,0.3-0.3,0.3c-0.5,0.1-0.6,0.2-0.6,0.4c0,0.1,0.1,0.2,0.2,0.4l0.3,0.4
	c0.2,0.3,0.5,0.5,0.7,0.5c0.1,0,0.3-0.1,0.5-0.3c0.3-0.4,0.7-0.7,1.2-0.8c1.2-0.3,1.5-0.4,1.5-0.7c0-0.1-0.1-0.3-0.1-0.4
	c-0.4-0.7-0.5-1.2-0.5-1.7c0-0.4-0.1-0.8-0.3-0.8c-0.1,0-0.2,0.1-0.3,0.3c-0.3,0.4-0.8,0.8-1.3,0.8c-1.2,0-2.7-1.9-3.5-4.5
	c-0.2-0.6-0.3-1.3-0.3-1.9s0.1-1.4,0.3-2.2c0.2-1,0.4-1.6,0.4-1.7l0.1-0.5C-117.2,292-118,290.9-119.2,290z M-116.7,294.9
	c-0.3,0.5-0.5,1.6-0.5,2.3c0,0.4,0.1,0.7,0.3,0.7c0.1,0,0.1-0.1,0.2-0.2l0.4-0.7c0.1-0.1,0.1-0.2,0.3-0.4c0.1-0.2,0.3-0.4,0.3-0.5
	C-115.8,295.7-116.1,295.2-116.7,294.9z M-112.7,311c0.1,0.1,0.1,0.1,0.2,0.2c0.2,0.2,0.3,0.3,0.3,0.3c0.7,0.7,0.8,0.8,1.1,0.8
	c0.3,0,1-0.2,1.3-0.4c0.2-0.1,0.3-0.2,0.3-0.3c0,0-0.1-0.2-0.4-0.4l-0.4-0.4c-0.3-0.3-0.7-0.5-1-0.5
	C-111.6,310.4-112.1,310.5-112.7,311z M-104.4,317.4c0.4,0.2,0.5,0.2,0.7,0.4c0.3,0.2,0.5,0.3,0.6,0.4c0.1,0.1,0.3,0.1,0.6,0.1
	c0.2,0,0.3,0,0.4-0.1l0.8-0.3l0.7-0.3c0.2-0.1,0.3-0.2,0.3-0.3c0-0.1-0.2-0.1-0.4-0.2c-0.2,0-0.3-0.1-0.5-0.2
	c-0.9-0.4-1-0.4-1.3-0.4C-103.3,316.5-104,316.9-104.4,317.4z M-95.4,324.5c0.2-0.6,0.4-0.7,1.2-0.7c0.9-0.1,1.8-1.7,1.8-2.8
	c0-0.1,0-0.2-0.1-0.2c-0.1,0-0.1,0-0.2,0.1c-0.3,0.2-0.4,0.3-0.5,0.3l-1,0.5c-0.7,0.3-1.3,1.2-1.3,1.9
	C-95.5,323.9-95.5,324.1-95.4,324.5z M-30.1,316.1l0.1-0.4l0.1-0.5c0-0.1,0.2-0.3,0.4-0.6c0.4-0.5,0.6-1.1,0.6-1.8
	c0-0.2-0.1-0.4-0.2-0.7c-0.1-0.1-0.1-0.3-0.1-0.3c0-0.1,0-0.1,0.1-0.2c0.1-0.1,0.1-0.1,0.1-0.1h0c0.1,0,0.3,0.1,0.4,0.3
	c0.1,0.2,0.3,0.3,0.4,0.3c0.2,0,0.3-0.3,0.4-0.7c0.1-0.2,0.1-0.3,0.1-0.4c0-0.2-0.1-0.6-0.3-1c-0.1-0.1-0.1-0.3-0.1-0.4
	c0-0.1,0.1-0.2,0.2-0.2c0.1,0,0.3,0.1,0.5,0.3c0.1,0.1,0.2,0.1,0.3,0.1c0.2,0,0.4-0.2,0.6-0.8c0.1-0.3,0.1-0.5,0.1-0.6
	c0-0.1-0.1-0.2-0.1-0.2l-0.1,0l-0.4,0c-0.6,0-1.6-0.4-2-1l-1-1.2c-0.4-0.5-0.9-1.2-0.9-1.2l-0.8-0.5c-0.1-0.1-0.2-0.2-0.2-0.3
	c0-0.1,0.1-0.2,0.3-0.2c0.2,0,0.8,0.2,1.8,0.7c1,0.4,2.7,0.8,3.6,0.8c1.7,0,3.1-1.4,3.1-3c0-0.9-0.4-1.8-1.4-2.9
	c-0.2-0.2-0.5-0.4-0.7-0.4c-0.1,0-0.2,0.1-0.2,0.2c0,0.1,0,0.2,0.1,0.4c0.1,0.1,0.1,0.2,0.1,0.3c0,0.2-0.1,0.3-0.2,0.3
	c-0.2,0-0.5-0.4-0.6-1c-0.2-0.8-0.7-1.3-1.8-1.8c-0.4-0.2-1-0.4-1.1-0.4c-0.1,0-0.1,0.1-0.1,0.2c0,0.1,0.1,0.3,0.1,0.4
	c0.2,0.2,0.3,0.5,0.3,0.7v0c0,0.1-0.1,0.2-0.2,0.2c-0.2,0-0.3-0.1-0.8-0.9c-0.3-0.4-1-1-1.6-1.2c-0.2-0.1-0.4-0.1-0.6-0.1h0
	c-0.1,0-0.2,0.1-0.2,0.1c0,0,0.1,0.1,0.2,0.3l0.1,0.2c0,0.1-0.1,0.2-0.2,0.2c-0.2,0-0.9-0.5-1.4-1.1c-0.6-0.6-0.9-1.5-0.9-2.1
	c0-1.4,1.3-2.6,2.8-2.6c0.4,0,0.7,0.1,0.9,0.2l1.3,0.6l1.5,1c0.8,0.6,2,1,2.7,1c0.3,0,0.4,0,1.1-0.2c0.3-0.1,0.6-0.2,0.6-0.4l0,0
	l-0.1-0.1l-0.8-0.1c-0.4,0-1.4-0.5-2.2-1l-1.7-1.1l-1.5-0.6c-0.1-0.1-0.2-0.1-0.2-0.2c0-0.1,0.1-0.1,0.2-0.1c0,0,0.1,0,0.4,0.1
	l1.4,0.4c0.3,0.1,0.9,0.3,1.7,0.8c1.5,0.8,2.5,1.1,3.2,1.1c0.8,0,1.4-0.6,1.4-1.3c0-0.3-0.1-0.7-0.1-1c0-0.2-0.1-0.3-0.2-0.5
	c-0.1-0.1-0.1-0.1-0.2-0.1c-0.1,0-0.2,0.1-0.2,0.3l0,0.2l0,0.2c0,0.7-0.3,0.9-1,0.9c-0.6,0-1.4-0.2-3.2-1c-1.7-0.7-2.8-0.9-3.8-0.9
	c-2.7,0-5.1,2.2-5.1,4.7c0,2.2,1.4,3.8,4.4,5l3.1,1.2c2.5,1,3.4,1.8,3.4,2.7c0,0.8-0.8,1.3-1.9,1.3c-0.5,0-1.1-0.1-2.3-0.5
	c-2.9-0.9-4.7-1.3-6.3-1.3c-2.7,0-4.5,0.7-6,2.3c-0.2,0.2-0.3,0.3-0.5,0.3c-0.1,0-0.3-0.1-0.5-0.2c-0.3-0.2-0.6-0.3-0.8-0.3
	c-0.3,0-0.7,0.2-0.9,0.5l-0.4,0.5c-0.1,0.1-0.2,0.2-0.3,0.2c-0.3,0-0.7-0.4-1-1c-0.2-0.3-0.3-0.6-0.4-0.9c-0.1-0.2-0.1-0.6-0.1-1
	l0-0.7l0.1-0.7c0.1-0.3,0.1-0.5,0.1-0.6c0-0.1,0.1-0.1,0.2-0.1c0.2,0,0.3,0.2,0.3,0.6l0,0.2v0.2c0,1,0.4,1.9,0.8,1.9
	c0.3,0,0.7-0.6,0.9-1.8c0.1-0.3,0.1-0.4,0.3-0.4c0.1,0,0.2,0.2,0.3,0.7c0.1,0.3,0.3,0.8,0.5,1.1c0.1,0.2,0.3,0.3,0.4,0.3
	c0.3,0,0.5-0.4,0.6-1.5c0.1-0.4,0.2-0.6,0.3-0.6c0.1,0,0.1,0,0.1,0.1c0,0,0.1,0.2,0.3,0.4c0.1,0.1,0.2,0.3,0.4,0.4
	c0.2,0.1,0.3,0.1,0.4,0.1c0.1,0,0.2-0.1,0.3-0.1c0.2-0.1,0.3-0.3,0.3-0.3c0-0.1-0.1-0.2-0.2-0.3c-0.2-0.3-0.4-0.6-0.6-1.2
	c-0.1-0.4-0.3-0.7-0.3-0.8c-0.1-0.1-0.1-0.2-0.2-0.3l-0.1,0l-0.2,0c0,0-0.3,0.1-0.8,0.2l-0.2,0c-0.1,0-0.2-0.1-0.2-0.2
	c0-0.1,0.1-0.3,0.3-0.4c0.9-0.7,1.4-1.9,1.7-3.7c0.1-1.1,0.3-1.5,0.7-2.1c0.1-0.1,0.2-0.2,0.2-0.2c0.1,0,0.2,0.1,0.2,0.3
	c0,0.1,0,0.3-0.1,0.5c-0.1,0.1-0.1,0.3-0.1,0.4v0.1l0.1,0.2l0.4-0.1l0.4-0.5c0.3-0.3,0.5-1,0.5-1.5c0-0.3-0.1-0.6-0.3-0.8
	c-0.2-0.3-0.4-0.4-0.5-0.4l-0.3,0l-0.3,0c-0.2,0-0.3-0.1-0.3-0.2l0.1-0.3l0-0.4l-0.2-0.9l-0.2-0.4l-0.1-0.4l-0.3,0.2l-0.5,0.3
	c-0.1,0.1-0.3,0.2-0.4,0.4c-0.5,0.6-0.5,0.6-0.8,0.6c-0.1,0-0.2-0.1-0.2-0.1l0-0.1c0.1-0.3,0.1-0.6,0.1-0.7c0-0.6-0.4-1.6-1-2.1
	c-0.8,0.7-1.1,1.5-1.1,2.2v0.4c0,0.2-0.1,0.3-0.2,0.3h0c-0.1,0-0.2-0.1-0.3-0.2l-0.4-0.6c0,0-0.2-0.2-0.6-0.5
	c-0.1-0.1-0.2-0.1-0.3-0.3l-0.1,0.3c-0.4,0.7-0.5,1.1-0.5,1.7c0,0.5-0.1,0.6-0.2,0.6c-0.1,0-0.1,0-0.2-0.1c-0.5-0.3-0.6-0.3-0.8-0.3
	c-0.6,0-1.1,0.4-1.1,1.1c0,0.3,0.1,0.7,0.4,1.2c0.3,0.6,0.8,1.1,1,1.1c0.1,0,0.1,0,0.1-0.2v-0.1l0-0.6l-0.1-0.5v-0.1
	c0-0.1,0.1-0.2,0.2-0.2c0.3,0,0.6,0.9,0.8,2.8c0.2,1.7,0.7,2.8,1.4,3.4c0.2,0.2,0.3,0.3,0.3,0.4c0,0.1-0.1,0.1-0.1,0.1
	c-0.1,0-0.3-0.1-0.5-0.2c-0.1-0.1-0.3-0.1-0.4-0.1c-0.4,0-0.8,0.4-0.8,0.9l-0.3,2l-0.3,2.8c-0.1,0.5,0,1.3,0.2,2.1
	c0.2,0.8,0.3,1.3,0.3,1.7c0,2.1-1.3,3.8-3.5,4.5l-2.3,0.7c-1.4,0.4-2.1,1.3-2.3,3.1c0.4-0.3,0.5-0.3,1-0.4l0.7-0.1
	c0.3-0.1,0.5-0.1,0.6-0.2c0.1,0,0.2-0.2,0.4-0.4l0.6-0.7c0.2-0.3,0.4-0.4,0.6-0.4c0.1,0,0.2,0.1,0.2,0.2c0,0.1-0.1,0.3-0.3,0.6
	c-0.2,0.3-0.3,0.6-0.3,0.9c0,0.4,0.1,0.7,0.6,1.4c0.1-0.2,0.1-0.4,0.1-0.4c0.1-0.1,0.2-0.4,0.5-0.8c0.5-0.6,0.9-1.3,0.9-1.6
	c0-0.6,0.1-0.7,0.2-0.7c0.1,0,0.1,0,0.2,0.3c0,0.1,0.1,0.1,0.1,0.2c0.1,0.1,0.2,0.1,0.2,0.1c0,0,0.1-0.1,0.3-0.1
	c0.3-0.2,0.4-0.3,0.6-0.5c0.1-0.2,0.3-0.4,0.4-0.6c0.1-0.3,0.2-0.5,0.2-0.7v-0.5c0-0.1,0.1-0.2,0.1-0.2c0.1,0,0.3,0.2,0.4,0.4
	c0.1,0.1,0.1,0.2,0.2,0.2h0c0.1,0,0.2-0.1,0.3-0.1c0.4-0.4,0.7-0.9,0.7-1.3l0-0.7l-0.1-0.5v-0.1c0-0.1,0.1-0.2,0.2-0.2
	c0.2,0,0.3,0.2,0.6,0.8c0.1,0.3,0.2,0.4,0.3,0.4c0.2,0,0.3-0.1,0.6-0.6l0.3-0.5c0.1-0.1,0.1-0.2,0.1-0.4s0-0.3-0.1-0.4l-0.3-0.4
	c-0.1-0.1-0.1-0.2-0.1-0.4c0-0.5,0.2-1,0.5-1.7c0.3-0.5,0.4-0.8,0.5-0.9c0.1-0.1,0.1-0.2,0.2-0.2c0.1,0,0.1,0.1,0.1,0.2l0,0.4v0.3
	v0.3c0.1,0.1,0.1,0.2,0.3,0.2c0.1,0,0.2,0,0.4-0.1l0.9-0.3c0.2-0.1,0.5-0.2,0.8-0.4c1.4-0.8,1.8-0.9,2.5-0.9c0.4,0,1,0.2,1.7,0.5
	c0.2,0.1,0.3,0.1,0.4,0.1c0.1,0,0.2-0.1,0.3-0.2c0.1-0.1,0.1-0.2,0.1-0.3c0-0.1-0.1-0.3-0.1-0.4c-0.1-0.2-0.2-0.4-0.2-0.5
	c0-0.1,0.1-0.2,0.2-0.2c0.1,0,0.2,0.1,0.3,0.2c0.1,0.2,0.4,0.6,0.8,1.4c0.7,1.2,1.5,2,2.3,2.2l1.6,0.4c0.5,0.1,0.6,0.3,0.6,0.9
	c0,1.1-0.5,2.1-1.4,2.7l-1.3,0.8c-0.5,0.3-0.9,1.1-0.9,1.8c0,0.4,0.1,1.2,0.3,1.8l0.3-0.3l0.6-0.4l0.5-0.5l0.3-0.8l0.3-0.7
	c0.1-0.3,0.3-0.6,0.4-0.6c0.1,0,0.2,0.2,0.2,0.5v0.1v0.1C-30.5,315.1-30.5,315.3-30.1,316.1z M-51.2,326.8c0.4-0.4,0.5-0.4,1.7-0.7
	c1-0.2,1.4-0.6,1.7-1.6c0.2-0.7,0.3-0.8,0.9-1.2c0.2-0.1,0.4-0.2,0.5-0.4c0.1-0.1,0.1-0.1,0.2-0.1c0.1,0,0.1,0.1,0.1,0.2
	c0,0.1-0.1,0.3-0.2,0.6c-0.1,0.2-0.1,0.4-0.1,0.7c0,0.6,0.1,1,0.4,1.4c0.2-0.5,0.3-0.6,0.9-1c0.7-0.5,1-1.1,1.1-2.3
	c0.1-0.5,0.2-0.8,0.3-0.8c0.1,0,0.1,0,0.2,0.1l0.3,0.5c0,0.1,0.1,0.1,0.2,0.1c0.1,0,0.3-0.1,0.4-0.3l0.5-0.5
	c0.2-0.2,0.4-0.7,0.4-1.5c0-0.3,0.1-0.5,0.3-0.5c0.1,0,0.1,0.1,0.2,0.2l0.2,0.7c0.1,0.2,0.2,0.3,0.3,0.3c0.1,0,0.1-0.1,0.3-0.2
	c0.2-0.2,0.4-0.3,0.5-0.5c0.2-0.2,0.3-0.5,0.3-0.7v-0.6c0-0.1,0.1-0.3,0.1-0.4c0.1-0.1,0.1-0.1,0.2-0.1c0.1,0,0.2,0.1,0.2,0.2
	l0.1,0.4c0.1,0.2,0.2,0.3,0.3,0.3c0.2,0,0.4-0.2,0.7-0.6c0.1-0.1,0.1-0.2,0.2-0.3c0.2-0.2,0.3-0.4,0.3-0.4c0-0.1-0.1-0.1-0.1-0.3
	c-0.5-0.7-0.8-1.5-0.8-2.4c0-1.2,0.4-2.2,1.8-4c0.8-1.1,1.3-2.1,1.3-2.9c0-0.2-0.1-0.3-0.3-0.3c-0.1,0-0.3,0-0.4,0.1
	c-0.1,0.1-0.2,0.1-0.3,0.1c-0.1,0-0.1-0.1-0.2-0.1l-0.3-0.3l-0.2-0.3c-0.1-0.1-0.2-0.2-0.3-0.2c0,0-0.1,0-0.3,0.1l-0.3,0
	c-0.4,0-0.5,0.1-0.5,0.5v0.2v0.2c0,0.3-0.3,0.8-0.6,1.1l-0.7,0.6c-0.8,0.8-1.5,1.9-1.5,2.7c0,0.3,0.1,0.9,0.3,1.5
	c0.3,1.1,0.4,1.6,0.4,1.9c0,1.7-2.6,3.9-7.5,6.4c-2.5,1.2-3.1,2-3.1,3.7V326.8z M-53.6,289.6v0.4v0.5c0,0.2,0,0.3-0.1,0.6
	c-0.1,0.5-0.1,0.7-0.1,0.8c0,0.7,0.1,1,0.5,1.7c0.2,0.4,0.4,0.9,0.4,1.2c0,0.1-0.1,0.2-0.2,0.2c-0.1,0-0.1,0-0.2-0.1l-0.3-0.4
	c-0.2-0.3-0.4-0.4-1-0.4l-0.6,0c0.3,0.6,0.3,0.8,0.4,1.2c0.3,1.2,0.3,1.2,1,1.8c0.6,0.6,0.7,0.6,0.7,0.8c0,0.2-0.1,0.3-0.3,0.3
	l-0.2,0l-0.1,0c-0.2,0-0.4,0.4-0.4,0.8c0,0.2,0.1,0.6,0.2,0.9c0.1,0.2,0.2,0.4,0.3,0.4l0.4,0.4c0.1,0.1,0.1,0.2,0.1,0.4
	c0,0.2-0.1,0.3-0.2,0.3c-0.1,0-0.2,0-0.3-0.1c-0.1-0.1-0.2-0.1-0.3-0.1c-0.2,0-0.2,0.1-0.2,0.3l0.1,0.5l0.2,0.9
	c0.1,0.2,0.2,0.4,0.4,0.7c0.2,0.2,0.4,0.4,0.5,0.4c0.4,0.2,0.7,0.3,0.7,0.3c0.1,0.1,0.1,0.2,0.1,0.3c0,0.1-0.1,0.3-0.2,0.3
	c0,0-0.2,0-0.4-0.1l-0.4,0c-0.4,0-0.4,0-0.4,0.3c0,0.2,0,0.4,0.1,0.6l0.1,0.6c0.1,0.6,0.3,0.9,0.6,0.9c0.1,0,0.1-0.1,0.3-0.1
	c0.5-0.4,1.6-0.8,2.2-0.8c0.7,0,1.4,0.1,1.7,0.2c0.2,0.1,0.3,0.1,0.3,0.1c0.1,0,0.1-0.1,0.1-0.4l0.1-0.6l0.1-1.1l0.1-0.8V303
	c-0.1,0.1-0.2,0.2-0.3,0.3c-0.6,0.6-1,0.8-1.6,0.8c-1.7,0-2.6-1.8-2.6-5c0-1.3,0.2-3.2,0.6-5.3c0.1-0.4,0.1-0.8,0.1-1
	C-51.5,291.5-52.3,290.4-53.6,289.6z M-51.2,297.5l0.3-0.3l0.3-0.3c0.3-0.2,0.5-0.7,0.5-1.1c0-0.2,0-0.3-0.1-0.5
	c-0.1-0.3-0.4-0.5-0.5-0.5c-0.1,0-0.2,0.3-0.3,0.8l-0.1,0.5l-0.1,0.5l0,0.5V297.5z M-54.3,312c0.4,0.1,0.4,0.2,0.8,0.6
	c0.5,0.6,0.8,0.7,1.4,0.7c0.2,0,0.3,0,0.5-0.1l0.5-0.1l0.4-0.1c0.2-0.1,0.3-0.1,0.3-0.2c0-0.1-0.3-0.3-0.7-0.6
	c-0.3-0.2-0.6-0.4-0.9-0.5c-0.3-0.1-0.6-0.2-0.8-0.2C-53.4,311.6-53.8,311.7-54.3,312z M-49.4,322.4c0.6-0.3,0.9-0.4,1.6-0.8
	c0.6-0.3,1-0.5,1-0.6c0.7-0.3,1-0.6,1-0.8c0-0.2-0.4-0.4-1.1-0.4c-1.4,0-2.5,1-2.5,2.1L-49.4,322.4z M-34.9,313.4
	c0.5-0.1,0.7-0.2,0.9-0.3l0.6,0c0.1,0,0.2-0.1,0.4-0.3c0.1-0.1,0.3-0.2,0.5-0.4c0.7-0.5,0.8-0.5,0.8-0.7c0-0.2-0.3-0.3-0.9-0.3
	C-33.7,311.6-34.4,312.1-34.9,313.4z"/>
<path d="M-108.3,227.8l-0.2-0.5l-0.1-0.3c0-0.3,0.1-0.4,0.6-0.6c0.7-0.3,0.9-0.4,1.2-0.6l0.4-0.4l0,0c0.1,0,0.2,0.1,0.2,0.3
	c0,0.4-0.5,1.3-1,2.1c-0.4,0.6-0.5,1-0.7,1c-0.2,0-0.3-0.3-0.4-0.6L-108.3,227.8z M-110.4,226.4l0.6,0.3c0.2,0.1,0.3,0.2,0.3,0.3
	l0,0.2c-0.1,0.3,0,0.6,0,0.8c-0.1,0.6-0.5,0.6-0.7,0.6c-0.1,0-0.1-0.1-0.3-0.4l-0.8-0.9c-0.3-0.3-0.4-0.9-0.5-1.6v-0.1
	c0-0.2,0.1-0.3,0.2-0.3c0.1,0,0.3,0.1,0.4,0.2L-110.4,226.4z M-41.4,228l-0.3-0.6l-0.1-0.3c0-0.3,0.1-0.4,0.6-0.6
	c0.4-0.2,1-0.4,1.2-0.6l0.4-0.4l0,0c0.1,0,0.2,0.1,0.2,0.3c0,0.4-0.5,1.2-1,2c-0.4,0.6-0.5,1.1-0.7,1.1c-0.2,0-0.3-0.3-0.4-0.6
	L-41.4,228z M-43.6,226.4l0.6,0.3c0.2,0.1,0.3,0.3,0.3,0.4l0,0.2l-0.2,0.6l-0.1,0.7c0,0.1-0.1,0.1-0.2,0.1h0
	c-0.1-0.1-0.5-0.2-0.8-0.5l-0.6-0.9c-0.1-0.1-0.2-0.4-0.4-1c-0.1-0.2-0.1-0.4-0.1-0.6v-0.1c0-0.2,0.1-0.3,0.2-0.3
	c0.1,0,0.3,0.1,0.4,0.2L-43.6,226.4z M-111.3,292.8l-0.2-0.5l0-0.2c0-0.1,0.1-0.1,0.1-0.1c0.1,0,0.3,0.1,0.4,0.2
	c0.2,0.1,0.3,0.1,0.5,0.2c1,0.3,1.2,0.4,1.2,0.9l0,0.6l-0.1,0.5c-0.1,0.2-0.1,0.3-0.2,0.3c-0.2,0-0.6-0.2-0.8-0.6l-0.4-0.5
	L-111.3,292.8z M-107,293.7l-0.5,0.8c-0.1,0.1-0.2,0.2-0.2,0.2h0c-0.2,0-0.4-0.4-0.4-0.9l-0.1-0.7c0.1-0.3,0.2-0.4,0.7-0.5
	c0.4-0.1,0.6-0.1,0.7-0.2c0.3-0.3,0.5-0.4,0.6-0.4l0.1,0c0.1,0,0.2,0.1,0.2,0.2l0,0.1l-0.3,0.6L-107,293.7z M-45.7,291.8l0.5,0.3
	c0.3,0.2,0.5,0.3,0.7,0.4c0.6,0.2,0.8,0.4,0.8,0.6c0,0.1,0,0.2-0.1,0.3c-0.1,0.2-0.1,0.3-0.1,0.5c-0.1,0.5-0.3,0.6-0.5,0.6
	c-0.2,0-0.5-0.4-0.9-1.1c-0.2-0.3-0.4-1-0.6-1.4l0-0.1C-46,291.8-45.9,291.8-45.7,291.8L-45.7,291.8z M-40.9,293.1l-0.8,0.8
	c-0.3,0.4-0.3,0.7-0.4,0.8c-0.1,0.1-0.1,0.1-0.3,0.1h-0.1c-0.2,0-0.4-0.1-0.4-0.4l0-0.6l0-0.6v0c0-0.2,0.1-0.4,0.3-0.4l0.8-0.2
	l0.8-0.4c0.2-0.1,0.3-0.1,0.3-0.1c0.1,0,0.2,0.1,0.2,0.2c0,0.1,0,0.1-0.1,0.2L-40.9,293.1z M-107.4,229.8l-0.3-0.1l-0.6,0.4l-0.8,0
	h-0.2l-0.4,0c0,0-0.2-0.1-0.4-0.3c-0.2-0.1-0.3-0.1-0.5-0.1c-0.3,0-0.5,0.2-0.5,0.4c0,0.3,0.1,0.8,0.5,1.6l0.5,1.1
	c0.4,1,0.8,1.4,1.3,1.4c0.5,0,0.5-0.4,0.8-1.2c0.7-1.8,1.1-2,1.1-2.7C-106.9,229.9-107,229.8-107.4,229.8z M-108.2,232.1l-0.1,0.8
	c0,0.4-0.3,0.7-0.6,0.7c-0.3,0-0.5-0.2-0.5-0.6l-0.1-0.7l-0.2-0.9l0.1-0.2c0-0.1,0.1-0.1,0.2-0.1h0.5l0.6-0.1h0c0.1,0,0.1,0,0.2,0.1
	c0.1,0.1,0.1,0.1,0.1,0.2C-108.2,231.3-108.2,231.6-108.2,232.1z M-40.7,229.7l-0.2,0l-0.5,0.4l-0.8,0h-0.2l-0.4,0
	c0,0-0.2-0.1-0.4-0.3c-0.2-0.1-0.3-0.1-0.5-0.1c-0.3,0-0.5,0.2-0.5,0.5c0,0.3,0.2,0.8,0.5,1.5c0.1,0.3,0.3,0.7,0.5,1.1
	c0.4,1,0.8,1.4,1.3,1.4c0.5,0,0.8-0.4,1.1-1.1l0.4-1.6c0.2-0.5,0.6-0.7,0.6-1.1C-39.9,230.1-40.3,229.7-40.7,229.7z M-41.4,232.1
	l-0.1,0.8c0,0.4-0.3,0.7-0.7,0.7c-0.3,0-0.4-0.2-0.4-0.6l-0.1-0.8l-0.2-0.9c0,0,0-0.1,0.1-0.2c0.1-0.1,0.1-0.1,0.2-0.1h0.4l0.6-0.1
	h0c0.1,0,0.1,0,0.2,0.1c0.1,0.1,0.1,0.1,0.1,0.2C-41.4,231.3-41.4,231.6-41.4,232.1z M-107.1,295.7c-0.1,0-0.2,0-0.3,0.1l-0.6,0.3
	c-0.2,0.1-0.4,0.1-0.6,0.1c-0.3,0-0.6-0.1-0.9-0.3l-0.3-0.2c-0.1-0.1-0.3-0.1-0.4-0.1c-0.4,0-0.6,0.2-0.6,0.7c0,0.3,0.1,0.7,0.3,1
	c0.7,1.4,1.4,2.2,2,2.2c0.4,0,0.7-0.6,1.2-1.4c0.4-0.8,0.8-1.3,0.8-1.7S-106.8,295.7-107.1,295.7z M-108,297.3l-0.1,0.5
	c-0.1,0.7-0.3,1.1-0.5,1.1c-0.1,0-0.2-0.1-0.3-0.1c-0.4-0.5-0.6-1.2-0.6-1.5c0-0.3,0.1-0.4,0.3-0.4h0.1l0.4,0.1l0.4-0.1h0.1
	C-108.1,296.9-108,296.9-108,297.3L-108,297.3z M-41.9,295.5c-0.1,0-0.2,0-0.3,0.1l-0.5,0.2c-0.3,0.1-0.6,0.2-0.8,0.2
	c-0.2,0-0.3,0-0.5-0.1l-0.5-0.3c-0.2-0.1-0.3-0.1-0.4-0.1c-0.3,0-0.5,0.3-0.5,0.6c0,0.4,0.2,1,0.6,1.9c0.6,1.3,0.8,1.5,1.3,1.5
	c0.3,0,0.5-0.2,0.8-0.6l0.4-0.8c0.6-0.8,0.9-1.3,0.9-1.8C-41.4,295.8-41.6,295.5-41.9,295.5z M-42.8,297.4c-0.1,0.8-0.4,1.3-0.7,1.3
	c-0.3,0-0.5-0.3-0.5-0.6l0-0.7v-0.2c0-0.4,0.1-0.6,0.3-0.6h0.2h0.3h0.2c0.3,0,0.4,0.1,0.4,0.3C-42.7,297-42.7,297.1-42.8,297.4z"/>
<path d="M-77.9,223.2l0.3,0.3l0.3,0.3c0.2,0.2,0.3,0.3,0.3,0.4c0.1,0.1,0.2,0.2,0.3,0.3l-0.2,0.1l-0.3,0.3l-0.3,0.3l-0.1,0.1v0.3
	c0,2.9,1,5.4,2.4,6.1c0.2,0.1,0.3,0.2,0.3,0.3l0,0.1l-0.3,0.1h-0.3c-0.4,0-1.2-0.1-1.7-0.3l-0.4,2.6h-0.5l-0.4-2.6
	c-0.5,0.2-1.2,0.3-1.7,0.3h-0.3c-0.2,0-0.3,0-0.3-0.1c0-0.1,0.1-0.2,0.3-0.3c1.4-0.7,2.4-3.3,2.4-6.1v-0.3l-0.1-0.1l-0.3-0.3
	l-0.3-0.3l-0.2-0.1c0.1-0.1,0.3-0.2,0.3-0.3c0.1,0,0.2-0.2,0.3-0.4l0.3-0.3L-77.9,223.2z M-64.9,223.2l0.3,0.3l0.3,0.3
	c0.2,0.2,0.3,0.3,0.3,0.4c0.1,0.1,0.2,0.2,0.3,0.3l-0.2,0.1l-0.3,0.3l-0.3,0.3l-0.1,0.1v0.3c0,2.9,1,5.4,2.4,6.1
	c0.2,0.1,0.3,0.2,0.3,0.3l0,0.1l-0.3,0.1h-0.3c-0.4,0-1.2-0.1-1.7-0.3l-0.4,2.6h-0.5l-0.4-2.6c-0.5,0.2-1.2,0.3-1.7,0.3h-0.3
	c-0.2,0-0.3,0-0.3-0.1c0-0.1,0.1-0.2,0.3-0.3c1.4-0.7,2.4-3.3,2.4-6.1v-0.3l-0.1-0.1l-0.3-0.3l-0.3-0.3l-0.2-0.1
	c0.1-0.1,0.3-0.2,0.3-0.3c0.1,0,0.2-0.2,0.3-0.4l0.3-0.3L-64.9,223.2z M-77.9,245.4l0.3,0.3l0.3,0.3c0.2,0.2,0.3,0.3,0.3,0.4
	c0.1,0.1,0.2,0.2,0.3,0.3l-0.2,0.1l-0.3,0.3l-0.3,0.3l-0.1,0.1v0.3c0,2.9,1,5.4,2.4,6.1c0.2,0.1,0.3,0.2,0.3,0.3l0,0.1l-0.3,0.1
	h-0.3c-0.4,0-1.2-0.1-1.7-0.3l-0.4,2.6h-0.5l-0.4-2.6c-0.5,0.2-1.2,0.3-1.7,0.3h-0.3c-0.2,0-0.3,0-0.3-0.1c0-0.1,0.1-0.2,0.3-0.3
	c1.4-0.7,2.4-3.3,2.4-6.1v-0.3l-0.1-0.1l-0.3-0.3l-0.3-0.3l-0.2-0.1c0.1-0.1,0.3-0.2,0.3-0.3c0.1-0.1,0.2-0.2,0.3-0.4l0.3-0.3
	L-77.9,245.4z M-64.9,245.4l0.3,0.3l0.3,0.3c0.2,0.2,0.3,0.3,0.3,0.4c0.1,0.1,0.2,0.2,0.3,0.3l-0.2,0.1l-0.3,0.3l-0.3,0.3l-0.1,0.1
	v0.3c0,2.9,1,5.4,2.4,6.1c0.2,0.1,0.3,0.2,0.3,0.3l0,0.1l-0.3,0.1h-0.3c-0.4,0-1.2-0.1-1.7-0.3l-0.4,2.6h-0.5l-0.4-2.6
	c-0.5,0.2-1.2,0.3-1.7,0.3h-0.3c-0.2,0-0.3,0-0.3-0.1c0-0.1,0.1-0.2,0.3-0.3c1.4-0.7,2.4-3.3,2.4-6.1v-0.3l-0.1-0.1l-0.3-0.3
	l-0.3-0.3l-0.2-0.1c0.1-0.1,0.3-0.2,0.3-0.3c0.1-0.1,0.2-0.2,0.3-0.4l0.3-0.3L-64.9,245.4z M-71.4,234.3l0.3,0.3l0.3,0.3
	c0.2,0.2,0.3,0.3,0.3,0.4c0.1,0.1,0.2,0.2,0.3,0.3l-0.2,0.1l-0.3,0.3l-0.3,0.3l-0.1,0.1v0.3c0,2.9,1,5.4,2.4,6.1
	c0.2,0.1,0.3,0.2,0.3,0.3l0,0.1l-0.3,0.1h-0.3c-0.4,0-1.2-0.1-1.7-0.3l-0.4,2.6h-0.5l-0.4-2.6c-0.5,0.2-1.2,0.3-1.7,0.3H-74
	c-0.2,0-0.3,0-0.3-0.1c0-0.1,0.1-0.2,0.3-0.3c1.4-0.7,2.4-3.3,2.4-6.1v-0.3l-0.1-0.1l-0.3-0.3l-0.3-0.3l-0.2-0.1
	c0.1-0.1,0.3-0.2,0.3-0.3c0.1-0.1,0.2-0.2,0.3-0.4l0.3-0.3L-71.4,234.3z M-77.9,299.6l0.3,0.3l0.3,0.3c0.2,0.2,0.3,0.3,0.3,0.4
	c0.1,0.1,0.2,0.2,0.3,0.3l-0.2,0.1l-0.3,0.3l-0.3,0.3l-0.1,0.1v0.3c0,2.9,1,5.4,2.4,6.1c0.2,0.1,0.3,0.2,0.3,0.3l0,0.1l-0.3,0.1
	h-0.3c-0.4,0-1.2-0.1-1.7-0.3l-0.4,2.6h-0.5l-0.4-2.6c-0.5,0.2-1.2,0.3-1.7,0.3h-0.3c-0.2,0-0.3,0-0.3-0.1c0-0.1,0.1-0.2,0.3-0.3
	c1.4-0.7,2.4-3.3,2.4-6.1v-0.3l-0.1-0.1l-0.3-0.3l-0.3-0.3l-0.2-0.1c0.1-0.1,0.3-0.2,0.3-0.3c0.1-0.1,0.2-0.2,0.3-0.4l0.3-0.3
	L-77.9,299.6z M-64.9,299.6l0.3,0.3l0.3,0.3c0.2,0.2,0.3,0.3,0.3,0.4c0.1,0.1,0.2,0.2,0.3,0.3L-64,301l-0.3,0.3l-0.3,0.3l-0.1,0.1
	v0.3c0,2.9,1,5.4,2.4,6.1c0.2,0.1,0.3,0.2,0.3,0.3l0,0.1l-0.3,0.1h-0.3c-0.4,0-1.2-0.1-1.7-0.3l-0.4,2.6h-0.5l-0.4-2.6
	c-0.5,0.2-1.2,0.3-1.7,0.3h-0.3c-0.2,0-0.3,0-0.3-0.1c0-0.1,0.1-0.2,0.3-0.3c1.4-0.7,2.4-3.3,2.4-6.1v-0.3l-0.1-0.1l-0.3-0.3
	l-0.3-0.3l-0.2-0.1c0.1-0.1,0.3-0.2,0.3-0.3c0.1-0.1,0.2-0.2,0.3-0.4l0.3-0.3L-64.9,299.6z M-77.9,322.9l0.3,0.3l0.3,0.3
	c0.2,0.2,0.3,0.3,0.3,0.4c0.1,0.1,0.2,0.2,0.3,0.3l-0.2,0.1l-0.3,0.3l-0.3,0.3l-0.1,0.1v0.3c0,2.9,1,5.4,2.4,6.1
	c0.2,0.1,0.3,0.2,0.3,0.3l0,0.1l-0.3,0.1h-0.3c-0.4,0-1.2-0.1-1.7-0.3l-0.4,2.6h-0.5l-0.4-2.6c-0.5,0.2-1.2,0.3-1.7,0.3h-0.3
	c-0.2,0-0.3,0-0.3-0.1c0-0.1,0.1-0.2,0.3-0.3c1.4-0.7,2.4-3.3,2.4-6.1V325l-0.1-0.1l-0.3-0.3l-0.3-0.3l-0.2-0.1
	c0.1-0.1,0.3-0.2,0.3-0.3c0.1-0.1,0.2-0.2,0.3-0.4l0.3-0.3L-77.9,322.9z M-64.9,322.9l0.3,0.3l0.3,0.3c0.2,0.2,0.3,0.3,0.3,0.4
	c0.1,0.1,0.2,0.2,0.3,0.3l-0.2,0.1l-0.3,0.3l-0.3,0.3l-0.1,0.1v0.3c0,2.9,1,5.4,2.4,6.1c0.2,0.1,0.3,0.2,0.3,0.3l0,0.1l-0.3,0.1
	h-0.3c-0.4,0-1.2-0.1-1.7-0.3l-0.4,2.6h-0.5l-0.4-2.6c-0.5,0.2-1.2,0.3-1.7,0.3h-0.3c-0.2,0-0.3,0-0.3-0.1c0-0.1,0.1-0.2,0.3-0.3
	c1.4-0.7,2.4-3.3,2.4-6.1V325l-0.1-0.1l-0.3-0.3l-0.3-0.3l-0.2-0.1c0.1-0.1,0.3-0.2,0.3-0.3c0.1-0.1,0.2-0.2,0.3-0.4l0.3-0.3
	L-64.9,322.9z M-71.4,311.1l0.3,0.3l0.3,0.3c0.2,0.2,0.3,0.3,0.3,0.4c0.1,0.1,0.2,0.2,0.3,0.3l-0.2,0.1l-0.3,0.3l-0.3,0.3l-0.1,0.1
	v0.3c0,2.9,1,5.4,2.4,6.1c0.2,0.1,0.3,0.2,0.3,0.3l0,0.1l-0.3,0.1h-0.3c-0.4,0-1.2-0.1-1.7-0.3l-0.4,2.6h-0.5l-0.4-2.6
	c-0.5,0.2-1.2,0.3-1.7,0.3H-74c-0.2,0-0.3,0-0.3-0.1c0-0.1,0.1-0.2,0.3-0.3c1.4-0.7,2.4-3.3,2.4-6.1v-0.3l-0.1-0.1l-0.3-0.3
	l-0.3-0.3l-0.2-0.1c0.1-0.1,0.3-0.2,0.3-0.3c0.1-0.1,0.2-0.2,0.3-0.4l0.3-0.3L-71.4,311.1z M-71.4,288.1l0.3,0.3l0.3,0.3
	c0.2,0.2,0.3,0.3,0.3,0.4c0.1,0.1,0.2,0.2,0.3,0.3l-0.2,0.1l-0.3,0.3l-0.3,0.3l-0.1,0.1v0.3c0,2.9,1,5.4,2.4,6.1
	c0.2,0.1,0.3,0.2,0.3,0.3l0,0.1l-0.3,0.1h-0.3c-0.4,0-1.2-0.1-1.7-0.3l-0.4,2.6h-0.5l-0.4-2.6c-0.5,0.2-1.2,0.3-1.7,0.3H-74
	c-0.2,0-0.3,0-0.3-0.1c0-0.1,0.1-0.2,0.3-0.3c1.4-0.7,2.4-3.3,2.4-6.1v-0.3l-0.1-0.1l-0.3-0.3l-0.3-0.3l-0.2-0.1
	c0.1-0.1,0.3-0.2,0.3-0.3c0.1-0.1,0.2-0.2,0.3-0.4l0.3-0.3L-71.4,288.1z M-117.9,263l0.3,0.3l0.3,0.3c0.2,0.2,0.3,0.3,0.3,0.4
	c0.1,0.1,0.2,0.2,0.3,0.3l-0.2,0.1l-0.3,0.3l-0.3,0.3l-0.1,0.1v0.3c0,2.9,1,5.4,2.4,6.1c0.2,0.1,0.3,0.2,0.3,0.3l0,0.1l-0.3,0.1
	h-0.3c-0.4,0-1.2-0.1-1.7-0.3l-0.4,2.6h-0.5l-0.4-2.6c-0.5,0.2-1.2,0.3-1.7,0.3h-0.3c-0.2,0-0.3,0-0.3-0.1c0-0.1,0.1-0.2,0.3-0.3
	c1.4-0.7,2.4-3.3,2.4-6.1v-0.3l-0.1-0.1l-0.3-0.3l-0.3-0.3l-0.2-0.1c0.1-0.1,0.3-0.2,0.3-0.3c0.1-0.1,0.2-0.2,0.3-0.4l0.3-0.3
	L-117.9,263z M-104.3,263l0.3,0.3l0.3,0.3c0.2,0.2,0.3,0.3,0.3,0.4c0.1,0.1,0.2,0.2,0.3,0.3l-0.2,0.1l-0.3,0.3l-0.3,0.3l-0.1,0.1
	v0.3c0,2.9,1,5.4,2.4,6.1c0.2,0.1,0.3,0.2,0.3,0.3l0,0.1l-0.3,0.1h-0.3c-0.4,0-1.2-0.1-1.7-0.3l-0.4,2.6h-0.5l-0.4-2.6
	c-0.5,0.2-1.2,0.3-1.7,0.3h-0.3c-0.2,0-0.3,0-0.3-0.1c0-0.1,0.1-0.2,0.3-0.3c1.4-0.7,2.4-3.3,2.4-6.1v-0.3l-0.1-0.1l-0.3-0.3
	l-0.3-0.3l-0.2-0.1c0.1-0.1,0.3-0.2,0.3-0.3c0.1-0.1,0.2-0.2,0.3-0.4l0.3-0.3L-104.3,263z M-90.7,263l0.3,0.3l0.3,0.3
	c0.2,0.2,0.3,0.3,0.3,0.4c0.1,0.1,0.2,0.2,0.3,0.3l-0.2,0.1l-0.3,0.3l-0.3,0.3l-0.1,0.1v0.3c0,2.9,1,5.4,2.4,6.1
	c0.2,0.1,0.3,0.2,0.3,0.3l0,0.1l-0.3,0.1h-0.3c-0.4,0-1.2-0.1-1.7-0.3l-0.4,2.6H-91l-0.4-2.6c-0.5,0.2-1.2,0.3-1.7,0.3h-0.3
	c-0.2,0-0.3,0-0.3-0.1c0-0.1,0.1-0.2,0.3-0.3c1.4-0.7,2.4-3.3,2.4-6.1v-0.3l-0.1-0.1l-0.3-0.3l-0.3-0.3l-0.2-0.1
	c0.1-0.1,0.3-0.2,0.3-0.3c0.1-0.1,0.2-0.2,0.3-0.4l0.3-0.3L-90.7,263z M-97.5,270.8l0.3,0.3l0.3,0.3c0.2,0.2,0.3,0.3,0.3,0.4
	c0.1,0.1,0.2,0.2,0.3,0.3l-0.2,0.1l-0.3,0.3l-0.3,0.3l-0.1,0.1v0.3c0,2.9,1,5.4,2.4,6.1c0.2,0.1,0.3,0.2,0.3,0.3l0,0.1l-0.3,0.1
	h-0.3c-0.4,0-1.2-0.1-1.7-0.3l-0.4,2.6h-0.5l-0.4-2.6c-0.5,0.2-1.2,0.3-1.7,0.3h-0.3c-0.2,0-0.3,0-0.3-0.1c0-0.1,0.1-0.2,0.3-0.3
	c1.4-0.7,2.4-3.3,2.4-6.1v-0.3l-0.1-0.1l-0.3-0.3l-0.3-0.3l-0.2-0.1c0.1-0.1,0.3-0.2,0.3-0.3c0.1,0,0.2-0.2,0.3-0.4l0.3-0.3
	L-97.5,270.8z M-111.1,270.8l0.3,0.3l0.3,0.3c0.2,0.2,0.3,0.3,0.3,0.4c0.1,0.1,0.2,0.2,0.3,0.3l-0.2,0.1l-0.3,0.3l-0.3,0.3l-0.1,0.1
	v0.3c0,2.9,1,5.4,2.4,6.1c0.2,0.1,0.3,0.2,0.3,0.3l0,0.1l-0.3,0.1h-0.3c-0.4,0-1.2-0.1-1.7-0.3l-0.4,2.6h-0.5l-0.4-2.6
	c-0.5,0.2-1.2,0.3-1.7,0.3h-0.3c-0.2,0-0.3,0-0.3-0.1c0-0.1,0.1-0.2,0.3-0.3c1.4-0.7,2.4-3.3,2.4-6.1v-0.3l-0.1-0.1l-0.3-0.3
	l-0.3-0.3l-0.2-0.1c0.1-0.1,0.3-0.2,0.3-0.3c0.1,0,0.2-0.2,0.3-0.4l0.3-0.3L-111.1,270.8z M-52,263l0.3,0.3l0.3,0.3
	c0.2,0.2,0.3,0.3,0.3,0.4c0.1,0.1,0.2,0.2,0.3,0.3l-0.2,0.1l-0.3,0.3l-0.3,0.3l-0.1,0.1v0.3c0,2.9,1,5.4,2.4,6.1
	c0.2,0.1,0.3,0.2,0.3,0.3l0,0.1l-0.3,0.1h-0.3c-0.4,0-1.2-0.1-1.7-0.3l-0.4,2.6h-0.5l-0.4-2.6c-0.5,0.2-1.2,0.3-1.7,0.3h-0.3
	c-0.2,0-0.3,0-0.3-0.1c0-0.1,0.1-0.2,0.3-0.3c1.4-0.7,2.4-3.3,2.4-6.1v-0.3l-0.1-0.1l-0.3-0.3l-0.3-0.3l-0.2-0.1
	c0.1-0.1,0.3-0.2,0.3-0.3c0.1-0.1,0.2-0.2,0.3-0.4l0.3-0.3L-52,263z M-38.4,263l0.3,0.3l0.3,0.3c0.2,0.2,0.3,0.3,0.3,0.4
	c0.1,0.1,0.2,0.2,0.3,0.3l-0.2,0.1l-0.3,0.3l-0.3,0.3l-0.1,0.1v0.3c0,2.9,1,5.4,2.4,6.1c0.2,0.1,0.3,0.2,0.3,0.3l0,0.1l-0.3,0.1
	h-0.3c-0.4,0-1.2-0.1-1.7-0.3l-0.4,2.6h-0.5l-0.4-2.6c-0.5,0.2-1.2,0.3-1.7,0.3H-41c-0.2,0-0.3,0-0.3-0.1c0-0.1,0.1-0.2,0.3-0.3
	c1.4-0.7,2.4-3.3,2.4-6.1v-0.3l-0.1-0.1l-0.3-0.3l-0.3-0.3l-0.2-0.1c0.1-0.1,0.3-0.2,0.3-0.3c0.1-0.1,0.2-0.2,0.3-0.4l0.3-0.3
	L-38.4,263z M-24.8,263l0.3,0.3l0.3,0.3c0.2,0.2,0.3,0.3,0.3,0.4c0.1,0.1,0.2,0.2,0.3,0.3l-0.2,0.1l-0.3,0.3l-0.3,0.3l-0.1,0.1v0.3
	c0,2.9,1,5.4,2.4,6.1c0.2,0.1,0.3,0.2,0.3,0.3l0,0.1l-0.3,0.1h-0.3c-0.4,0-1.2-0.1-1.7-0.3l-0.4,2.6h-0.5l-0.4-2.6
	c-0.5,0.2-1.2,0.3-1.7,0.3h-0.3c-0.2,0-0.3,0-0.3-0.1c0-0.1,0.1-0.2,0.3-0.3c1.4-0.7,2.4-3.3,2.4-6.1v-0.3l-0.1-0.1l-0.3-0.3
	l-0.3-0.3l-0.2-0.1c0.1-0.1,0.3-0.2,0.3-0.3c0.1-0.1,0.2-0.2,0.3-0.4l0.3-0.3L-24.8,263z M-31.6,270.8l0.3,0.3l0.3,0.3
	c0.2,0.2,0.3,0.3,0.3,0.4c0.1,0.1,0.2,0.2,0.3,0.3l-0.2,0.1l-0.3,0.3l-0.3,0.3l-0.1,0.1v0.3c0,2.9,1,5.4,2.4,6.1
	c0.2,0.1,0.3,0.2,0.3,0.3l0,0.1l-0.3,0.1h-0.3c-0.4,0-1.2-0.1-1.7-0.3l-0.4,2.6h-0.5l-0.4-2.6c-0.5,0.2-1.2,0.3-1.7,0.3h-0.3
	c-0.2,0-0.3,0-0.3-0.1c0-0.1,0.1-0.2,0.3-0.3c1.4-0.7,2.4-3.3,2.4-6.1v-0.3l-0.1-0.1l-0.3-0.3l-0.3-0.3l-0.2-0.1
	c0.1-0.1,0.3-0.2,0.3-0.3c0.1,0,0.2-0.2,0.3-0.4l0.3-0.3L-31.6,270.8z M-45.2,270.8l0.3,0.3l0.3,0.3c0.2,0.2,0.3,0.3,0.3,0.4
	c0.1,0.1,0.2,0.2,0.3,0.3l-0.2,0.1l-0.3,0.3l-0.3,0.3l-0.1,0.1v0.3c0,2.9,1,5.4,2.4,6.1c0.2,0.1,0.3,0.2,0.3,0.3l0,0.1l-0.3,0.1
	h-0.3c-0.4,0-1.2-0.1-1.7-0.3l-0.4,2.6h-0.5l-0.4-2.6c-0.5,0.2-1.2,0.3-1.7,0.3h-0.3c-0.2,0-0.3,0-0.3-0.1c0-0.1,0.1-0.2,0.3-0.3
	c1.4-0.7,2.4-3.3,2.4-6.1v-0.3l-0.1-0.1l-0.3-0.3l-0.3-0.3l-0.2-0.1c0.1-0.1,0.3-0.2,0.3-0.3c0.1,0,0.2-0.2,0.3-0.4l0.3-0.3
	L-45.2,270.8z"/>
<path d="M-84.2,263h3.8c0.4-0.9,1-1.3,1.9-1.3c0.9,0,1.5,0.4,2,1.3h3.1c0.4-0.8,1.1-1.3,2-1.3c0.8,0,1.7,0.5,1.9,1.3h2.9
	c0.4-0.8,1.1-1.3,1.9-1.3c0.8,0,1.5,0.4,1.9,1.1l0.1,0.2h4v18.4h-3.5v7h-4.1v-7h-10.4v7h-4.1v-7.1h-3.5L-84.2,263L-84.2,263z"/>
<path class="st1" d="M-82.8,264.4v0.6H-60v-0.6H-82.8z M-82.8,279.9H-60v-13.8h-22.8V279.9z"/>
<path class="st2" d="M-80.4,268c-0.6,0-1.1,0.5-1.1,1.1c0,0.6,0.5,1.1,1.1,1.1c0.6,0,1.1-0.5,1.1-1.1C-79.3,268.5-79.8,268-80.4,268
	z M-62.4,268c-0.6,0-1.1,0.5-1.1,1.1c0,0.6,0.5,1.1,1.1,1.1c0.6,0,1.1-0.5,1.1-1.1C-61.3,268.5-61.8,268-62.4,268z M-80.4,276.5
	c-0.6,0-1.1,0.5-1.1,1.1c0,0.6,0.5,1.1,1.1,1.1c0.6,0,1-0.5,1-1.1C-79.3,276.9-79.8,276.5-80.4,276.5z M-62.4,278.6
	c0.6,0,1.1-0.5,1.1-1.1c0-0.6-0.5-1.1-1.1-1.1c-0.6,0-1.1,0.5-1.1,1.1C-63.5,278.1-63,278.6-62.4,278.6z M-77,273.2
	c1.5,1.8,3.3,2.7,5.6,2.7c2.1,0,3.6-0.8,5.3-2.7c-1.7-1.7-3.3-2.5-5.4-2.5C-73.7,270.7-75.7,271.6-77,273.2z M-77.8,283H-80v2.7h2.1
	V283z M-77.8,286.3H-80v0.9h2.1V286.3z M-63.3,283h-2.1v2.7h2.1V283z M-63.3,286.3h-2.1v0.9h2.1V286.3z M-78.5,263c-0.5,0-1,0.4-1,1
	v2.5c0,0.5,0.4,1,1,1c0.5,0,1-0.4,1-1v-2.5C-77.5,263.4-78,263-78.5,263z M-71.4,263c-0.5,0-1,0.4-1,1v2.5c0,0.5,0.4,1,1,1
	c0.5,0,1-0.4,1-1v-2.5C-70.4,263.4-70.8,263-71.4,263z M-64.7,263c-0.5,0-1,0.4-1,1v2.5c0,0.5,0.4,1,1,1c0.5,0,1-0.4,1-1v-2.5
	C-63.7,263.4-64.1,263-64.7,263z"/>
<path d="M-63.9,277.5c0,0.8,0.7,1.5,1.5,1.5c0.8,0,1.5-0.7,1.5-1.5c0-0.8-0.7-1.5-1.5-1.5C-63.2,276-63.9,276.7-63.9,277.5z
	 M-63.1,277.5c0-0.3,0.3-0.6,0.6-0.6s0.6,0.3,0.6,0.6c0,0.3-0.3,0.6-0.6,0.6S-63.1,277.9-63.1,277.5z M-71.5,271.6
	c-1.6,0-2.9,0.5-4.4,1.7c1.3,1.2,2.7,1.9,4.3,1.9c1.8,0,3-0.5,4.4-1.8C-68.8,272-69.9,271.6-71.5,271.6z M-71.6,273.6
	c-0.8,0-1.6-0.2-2.5-0.8c0.8-0.4,1.6-0.6,2.5-0.6c0.9,0,1.7,0.2,2.6,0.6C-69.8,273.4-70.6,273.6-71.6,273.6z M-81.9,269.1
	c0,0.8,0.7,1.5,1.5,1.5c0.8,0,1.5-0.7,1.5-1.5c0-0.8-0.7-1.5-1.5-1.5C-81.2,267.6-81.9,268.3-81.9,269.1z M-81,269.1
	c0-0.3,0.3-0.6,0.6-0.6c0.4,0,0.6,0.3,0.6,0.6c0,0.3-0.3,0.6-0.6,0.6C-80.7,269.7-81,269.5-81,269.1z M-81.9,277.5
	c0,0.8,0.7,1.5,1.6,1.5c0.8,0,1.5-0.7,1.5-1.5c0-0.8-0.7-1.5-1.5-1.5C-81.2,276-81.9,276.7-81.9,277.5z M-81,277.5
	c0-0.3,0.3-0.6,0.6-0.6c0.4,0,0.6,0.3,0.6,0.6c0,0.3-0.3,0.6-0.6,0.6C-80.7,278.2-81,277.9-81,277.5z M-63.9,269.1
	c0,0.8,0.7,1.5,1.5,1.5c0.8,0,1.5-0.7,1.5-1.5c0-0.8-0.7-1.5-1.5-1.5C-63.2,267.6-63.9,268.3-63.9,269.1z M-63.1,269.1
	c0-0.3,0.3-0.6,0.6-0.6s0.6,0.3,0.6,0.6c0,0.3-0.3,0.6-0.6,0.6S-63.1,269.5-63.1,269.1z"/>
</svg>
